<svg xmlns="http://www.w3.org/2000/svg" width="1271" height="345" viewBox="0 0 1271 345">
  <defs>
    <style>
      .cls-1 {
        fill: #2a3e48;
        fill-rule: evenodd;
        opacity: 0.31;
      }
    </style>
  </defs>
  <path id="line.svg" class="cls-1" d="M276,1659v0.99h-2V1659h2Zm526.518,344h-0.457v1h0.457v-1h0Zm-3.458,0v1h-2v-1h2Zm-5,0v1h-2v-1h2Zm-5,0v1h-2v-1h2Zm-5,0v1h-2v-1h2Zm-5,0v1h-2v-1h2Zm-5,0v1h-2v-1h2Zm-5,0v1h-2v-1h2Zm-5,0v1h-2v-1h2Zm-5,0v1h-2v-1h2Zm-5,0v1h-2v-1h2Zm-5,0v1h-2v-1h2Zm-5,0v1h-2v-1h2Zm-5,0v1h-2v-1h2Zm-5,0v1h-2v-1h2Zm-5,0v1h-2v-1h2Zm-5,0v1h-2v-1h2Zm-5,0v1h-2v-1h2Zm-5,0v1h-2v-1h2Zm-5,0v1h-2v-1h2Zm-5,0v1h-2v-1h2Zm-5,0v1h-2v-1h2Zm-5,0v1h-2v-1h2Zm-5,0v1h-2v-1h2Zm-5,0v1h-2v-1h2Zm-5,0v1h-2v-1h2Zm-5,0v1h-2v-1h2Zm-5,0v1h-2v-1h2Zm-5,0v1h-2v-1h2Zm-5,0v1h-2v-1h2Zm-5,0v1h-2v-1h2Zm-5,0v1h-2v-1h2Zm-5,0v1h-2v-1h2Zm-5,0v1h-2v-1h2Zm-5,0v1h-2v-1h2Zm-5,0v1h-2v-1h2Zm-5,0v1h-2v-1h2Zm-5,0v1h-2v-1h2Zm-5,0v1h-2v-1h2Zm-5,0v1h-2v-1h2Zm-5,0v1h-2v-1h2Zm-5,0v1h-2v-1h2Zm-5,0v1h-2v-1h2Zm-5,0v1h-2v-1h2Zm-5,0v1h-2v-1h2Zm-5,0v1h-2v-1h2Zm-5,0v1h-2v-1h2Zm-5,0v1h-2v-1h2Zm-5,0v1h-2v-1h2Zm-5,0v1h-2v-1h2Zm-5,0v1h-2v-1h2Zm-5,0v1h-2v-1h2Zm-5,0v1h-2v-1h2Zm-5,0v1h-2v-1h2Zm-5,0v1h-2v-1h2Zm-5,0v1h-2v-1h2Zm-5,0v1h-2v-1h2Zm-5,0v1h-2v-1h2Zm-5,0v1h-2v-1h2Zm-5,0v1h-2v-1h2Zm-5,0v1h-2v-1h2Zm-5,0v1h-2v-1h2Zm-5,0v1h-2v-1h2Zm-5,0v1h-2v-1h2Zm-5,0v1h-2v-1h2Zm-5,0v1h-2v-1h2Zm-5,0v1h-2v-1h2Zm-5,0v1h-2v-1h2Zm-5,0v1h-2v-1h2Zm-5,0v1h-2v-1h2Zm-5,0v1h-2v-1h2Zm-5,0v1h-2v-1h2Zm-5,0v1h-2v-1h2Zm-5,0v1h-2v-1h2Zm-5,0v1h-2v-1h2Zm-5,0v1h-2v-1h2Zm-5,0v1h-2v-1h2Zm-5,0v1h-2v-1h2Zm-5,0v1h-2v-1h2Zm-4.98-.03h-0.231l-0.227-.02-0.23-.01-0.226-.01-0.229-.02-0.225-.02-0.226-.01-0.227-.02-0.15-.02-0.093,1,0.157,0.01,0.231,0.02,0.233,0.02,0.234,0.02,0.232,0.01,0.235,0.02,0.233,0.01,0.235,0.01,0.231,0.01,0.043-1h0Zm-4.9-.52-0.037-.01-0.221-.04-0.218-.04-0.218-.05-0.219-.04-0.217-.05-0.218-.04-0.216-.05-0.218-.05-0.149-.03-0.23.96,0.156,0.04,0.222,0.05,0.224,0.05,0.222,0.05,0.225,0.05,0.223,0.04,0.225,0.05,0.226,0.04,0.225,0.04,0.038,0.01,0.175-.98h0Zm-4.776-1.21-0.187-.06-0.209-.07-0.208-.07-0.206-.07-0.207-.07-0.2-.08-0.206-.08-0.2-.07-0.2-.08-0.02-.01-0.368.93,0.029,0.01,0.209,0.08,0.211,0.08,0.21,0.08,0.212,0.07,0.212,0.08,0.213,0.07,0.213,0.08,0.212,0.07,0.188,0.06,0.316-.95h0Zm-4.569-1.85-0.059-.03-0.193-.09-0.195-.1-0.194-.1-0.191-.1-0.193-.1-0.19-.1-0.191-.1-0.191-.11-0.15-.08-0.488.87,0.157,0.09,0.195,0.1,0.195,0.11,0.2,0.1,0.2,0.11,0.2,0.1,0.2,0.1,0.2,0.1,0.2,0.1,0.058,0.03,0.438-.9h0Zm-4.268-2.46-0.092-.06-0.179-.12-0.176-.12-0.177-.13-0.177-.12-0.175-.13-0.173-.12L389.1,1996l-0.173-.13-0.11-.08-0.6.79,0.114,0.09,0.178,0.13,0.178,0.13,0.18,0.13,0.18,0.13,0.181,0.13,0.181,0.13,0.184,0.12,0.182,0.12,0.093,0.07,0.558-.83h0Zm-3.892-3.02-0.1-.09-0.16-.14-0.159-.15-0.158-.14-0.158-.15-0.156-.15-0.156-.15-0.154-.15-0.152-.15-0.084-.08-0.707.71,0.088,0.08,0.159,0.16,0.158,0.15,0.16,0.15,0.16,0.16,0.162,0.15,0.162,0.15,0.163,0.15,0.164,0.14,0.1,0.09,0.668-.74h0Zm-3.448-3.52-0.1-.11-0.138-.17-0.138-.16-0.137-.17-0.135-.16-0.135-.17-0.134-.17-0.132-.17-0.132-.17-0.062-.08-0.793.6,0.062,0.09,0.135,0.17,0.137,0.18,0.138,0.17,0.138,0.17,0.14,0.17,0.14,0.17,0.142,0.17,0.142,0.17,0.1,0.12,0.763-.65h0Zm-2.938-3.95-0.1-.15-0.117-.18-0.114-.18-0.112-.19-0.112-.18-0.11-.19-0.11-.18-0.11-.19-0.107-.19-0.032-.05-0.871.48,0.035,0.06,0.111,0.2,0.111,0.19,0.113,0.19,0.114,0.19,0.116,0.19,0.116,0.19,0.118,0.19,0.117,0.19,0.1,0.15,0.844-.54h0Zm-2.372-4.32h0l-0.09-.2-0.091-.2-0.088-.2-0.086-.2-0.087-.2-0.084-.2-0.085-.2-0.081-.2-0.082-.2h0l-0.93.36h0l0.082,0.21,0.085,0.21,0.085,0.2,0.088,0.21,0.087,0.21,0.09,0.2,0.091,0.21,0.091,0.2,0.094,0.2,0,0.01,0.907-.42h0Zm-1.751-4.59-0.032-.11-0.064-.21-0.06-.21-0.061-.21-0.059-.22-0.057-.21-0.056-.21-0.054-.22-0.054-.21-0.023-.09-0.969.23,0.023,0.1,0.054,0.22,0.058,0.22,0.056,0.22,0.061,0.22,0.059,0.21,0.061,0.22,0.064,0.22,0.064,0.22,0.032,0.1,0.957-.28h0Zm-1.1-4.8-0.01-.06-0.034-.23-0.032-.22-0.031-.22-0.03-.22-0.027-.22-0.026-.23-0.026-.22-0.024-.23-0.011-.1-0.993.09,0.012,0.11,0.024,0.23,0.025,0.23,0.027,0.23,0.03,0.23,0.03,0.23,0.031,0.23,0.033,0.23,0.033,0.23,0.01,0.06,0.989-.15h0Zm-0.421-4.9,0-.13,0-.23,0-.23v-1.4h-1v1.4l0,0.24,0,0.23,0,0.13,1-.01h0Zm0-4.99h-1v-2h1v2h0Zm0-5h-1v-1.99h1v1.99h0Zm0-4.99h-1v-2h1v2h0Zm0-4.99h-1v-2h1v2h0Zm0-5h-1v-2h1v2h0Zm0-4.99h-1v-2h1v2h0Zm0-5h-1v-1.99h1v1.99h0Zm0-4.99h-1v-2h1v2h0Zm0-4.99h-1v-2h1v2h0Zm0-5h-1v-2h1v2h0Zm0-4.99h-1v-2h1v2h0Zm0-5h-1v-1.99h1v1.99h0Zm0-4.99h-1v-2h1v2h0Zm0-4.99h-1v-2h1v2h0Zm0-5h-1v-1.99h1v1.99h0Zm0-4.99h-1v-2h1v2h0Zm0-5h-1v-1.99h1v1.99h0Zm0-4.99h-1v-2h1v2h0Zm0-4.99h-1v-2h1v2h0Zm0-5h-1v-0.2l0-.23,0-.24,0-.23,0-.24,0.007-.23,0.008-.24,0.009-.23,0.009-.18,1,0.05-0.008.17-0.01.23-0.008.23-0.007.22,0,0.23,0,0.23,0,0.23,0,0.23v0.2h0Zm0.311-4.91,0.006-.04,0.03-.23,0.033-.22,0.034-.22,0.033-.22,0.037-.22,0.038-.22,0.038-.22,0.041-.22,0.026-.14-0.981-.18-0.026.14-0.041.22-0.041.23-0.039.22-0.036.23-0.038.23-0.033.23-0.033.23-0.031.22-0.006.05,0.989,0.13h0Zm0.99-4.82,0-.01,0.061-.21,0.06-.22,0.063-.2,0.063-.22,0.066-.21,0.065-.21,0.068-.2,0.069-.21,0.065-.19-0.946-.32-0.065.19-0.072.22-0.068.21-0.07.22-0.066.22-0.066.21-0.063.22-0.064.21-0.061.22,0,0.01,0.961,0.27h0Zm1.649-4.64,0.047-.11,0.088-.19,0.091-.2,0.089-.2,0.091-.2,0.094-.19,0.094-.2,0.1-.19,0.1-.2,0.052-.1-0.891-.45-0.056.11-0.1.2-0.1.2-0.1.2-0.094.2-0.1.2-0.094.21-0.091.2-0.091.21-0.047.1,0.914,0.4h0Zm2.274-4.36,0.091-.15,0.115-.19,0.115-.18,0.116-.18,0.117-.18,0.118-.18,0.119-.18,0.122-.18,0.122-.18,0.04-.05-0.82-.57-0.045.06-0.125.18-0.122.19-0.123.18-0.122.19-0.121.18-0.12.19-0.119.19-0.115.19-0.091.14,0.848,0.53h0Zm2.851-4.02,0.128-.15,0.138-.17,0.139-.16,0.139-.17,0.141-.16,0.141-.16,0.142-.16,0.144-.16,0.145-.16,0.033-.04-0.734-.67-0.038.04-0.148.16-0.148.17-0.146.16-0.146.17-0.144.16-0.143.17-0.143.17-0.141.17-0.128.16,0.769,0.63h0Zm3.373-3.59h0l0.158-.15,0.159-.14,0.16-.15,0.16-.14,0.161-.14,0.163-.14,0.163-.15,0.164-.13,0.166-.14,0.025-.02-0.637-.77-0.029.02-0.17.14-0.168.15-0.167.14-0.167.15-0.165.14-0.166.15-0.164.15-0.164.15-0.161.15h0l0.68,0.73h0Zm3.827-3.1,0.018-.02,0.178-.12,0.176-.12,0.179-.13,0.179-.12,0.181-.11,0.179-.12,0.182-.12,0.183-.12,0.181-.11h0l-0.523-.85-0.009.01-0.19.11-0.186.12-0.186.12-0.187.12-0.184.13-0.184.12-0.183.12-0.184.13-0.181.13-0.018.01,0.574,0.82h0Zm4.213-2.56,0.057-.03,0.194-.09,0.195-.1,0.193-.1,0.2-.09,0.2-.1,0.195-.09,0.2-.09,0.2-.09,0.156-.07-0.407-.91-0.16.07-0.2.09-0.2.1-0.2.09-0.2.1-0.2.1-0.2.09-0.2.11-0.2.1-0.058.03,0.454,0.88h0Zm4.524-1.95,0.139-.05,0.208-.07,0.209-.07,0.207-.07,0.209-.06,0.21-.07,0.209-.07,0.212-.06,0.211-.06,0.065-.02-0.274-.96-0.069.02-0.218.07-0.216.06-0.217.07-0.214.07-0.216.07-0.216.07-0.212.07-0.213.07-0.139.05,0.325,0.94h0Zm4.753-1.3,0.073-.02,0.218-.04,0.218-.04,0.221-.04,0.219-.04,0.222-.04,0.22-.04,0.221-.03,0.223-.03,0.107-.02-0.136-.99-0.116.02-0.227.03-0.228.04-0.228.04-0.226.04-0.227.04-0.224.04-0.227.04-0.226.04-0.072.02,0.195,0.98h0Zm4.886-.64,0.1-.01,0.229-.01,0.227-.01,0.228-.01,0.231-.01H409.4l0.229-.01h0.5v-1h-0.283l-0.235.01h-0.236l-0.237.01-0.234.01-0.236.01-0.235.01-0.233.01h-0.1l0.055,1h0Zm4.973-.06v-1h2v1h-2Zm5,0v-1h2v1h-2Zm5,0v-1h2v1h-2Zm5,0v-1h2v1h-2Zm5,0v-1h2v1h-2Zm5,0v-1h2v1h-2Zm5,0v-1h2v1h-2Zm5,0v-1h2v1h-2Zm5,0v-1h2v1h-2Zm5,0v-1h2v1h-2Zm5,0v-1h2v1h-2Zm5,0v-1h2v1h-2Zm5,0v-1h2v1h-2Zm5,0v-1h2v1h-2Zm5,0v-1h2v1h-2Zm5,0v-1h2v1h-2Zm5,0v-1h2v1h-2Zm5,0v-1h2v1h-2Zm5,0v-1h2v1h-2Zm5,0v-1h2v1h-2Zm5,0v-1h2v1h-2Zm5,0v-1h2v1h-2Zm5,0v-1h2v1h-2Zm5,0v-1h2v1h-2Zm5,0v-1h2v1h-2Zm5,0v-1h2v1h-2Zm5,0v-1h2v1h-2Zm5,0v-1h2v1h-2Zm5,0v-1h2v1h-2Zm5,0v-1h2v1h-2Zm5,0v-1h2v1h-2Zm5,0v-1h2v1h-2Zm5,0v-1h2v1h-2Zm5,0v-1h2v1h-2Zm5,0v-1h2v1h-2Zm5,0v-1h2v1h-2Zm5,0v-1h2v1h-2Zm5,0v-1h2v1h-2Zm5,0v-1h2v1h-2Zm5,0v-1h2v1h-2Zm5,0v-1h2v1h-2Zm5,0v-1h2v1h-2Zm5,0v-1h2v1h-2Zm5,0v-1h2v1h-2Zm5,0v-1h2v1h-2Zm5,0v-1h2v1h-2Zm5,0v-1h2v1h-2Zm5,0v-1h2v1h-2Zm5,0v-1h2v1h-2Zm5,0v-1h2v1h-2Zm5,0v-1h2v1h-2Zm5,0v-1h2v1h-2Zm5,0v-1h2v1h-2Zm5,0v-1h2v1h-2Zm5,0v-1h2v1h-2Zm5,0v-1h2v1h-2Zm5,0v-1h2v1h-2Zm5,0v-1h2v1h-2Zm5,0v-1h2v1h-2Zm5,0v-1h2v1h-2Zm5,0v-1h2v1h-2Zm5,0v-1h2v1h-2Zm5,0v-1h2v1h-2Zm5,0v-1h2v1h-2Zm5,0v-1h2v1h-2Zm5,0v-1h2v1h-2Zm5,0v-1h2v1h-2Zm5,0v-1h2v1h-2Zm5,0v-1h2v1h-2Zm5,0v-1h2v1h-2Zm5,0v-1h2v1h-2Zm5,0v-1h2v1h-2Zm5,0v-1h2v1h-2Zm5,0v-1h2v1h-2Zm5,0v-1h2v1h-2Zm5,0v-1h2v1h-2Zm5,0v-1h2v1h-2Zm5,0v-1h2v1h-2Zm5,0v-1h2v1h-2Zm5,0v-1h2v1h-2Zm5,0v-1h2v1h-2Zm5,0v-1h2v1h-2Zm5,0v-1h2v1h-2Zm5,0v-1h2v1h-2Zm5,0v-1h2v1h-2Zm5,0v-1h2v1h-2Zm5,0v-1h2v1h-2Zm5,0v-1h2v1h-2Zm5,0v-1h2v1h-2Zm5,0v-1h2v1h-2Zm5,0v-1h2v1h-2Zm5,0v-1h2v1h-2Zm5,0v-1h2v1h-2Zm5,0v-1h2v1h-2Zm5,0v-1h2v1h-2Zm5,0v-1h2v1h-2Zm5,0v-1h2v1h-2Zm5,0v-1h2v1h-2Zm5,0v-1h2v1h-2Zm5,0v-1h2v1h-2Zm5,0v-1h2v1h-2Zm5,0v-1h2v1h-2Zm5,0v-1h2v1h-2Zm5,0v-1h2v1h-2Zm5,0v-1h2v1h-2Zm5,0v-1h2v1h-2Zm5,0v-1h2v1h-2Zm5,0v-1h2v1h-2Zm5,0v-1h2v1h-2Zm5,0v-1h2v1h-2Zm5,0v-1h2v1h-2Zm5,0v-1h2v1h-2Zm5,0v-1h2v1h-2Zm5,0v-1h2v1h-2Zm5,0v-1h2v1h-2Zm5,0v-1h2v1h-2Zm5,0v-1h2v1h-2Zm5,0v-1h2v1h-2Zm5,0v-1h2v1h-2Zm5,0v-1h2v1h-2Zm5,0v-1h2v1h-2Zm5.01,0v-1h2v1h-2Zm5,0v-1h2v1h-2Zm5,0v-1h2v1h-2Zm5,0v-1h2v1h-2Zm5,0v-1h2v1h-2Zm5,0v-1h2.01v1h-2.01Zm5.01,0v-1h2v1h-2Zm5,0v-1h2v1h-2Zm5,0v-1h2v1h-2Zm5,0v-1h2v1h-2Zm5,0v-1h2v1h-2Zm5.01,0v-1h2v1h-2Zm5,0v-1h2v1h-2Zm5,0v-1h2v1h-2Zm5,0v-1h2v1h-2Zm5,0v-1h2v1h-2Zm5,0v-1h2v1h-2Zm5.01,0v-1h2v1h-2Zm5,0v-1h2v1h-2Zm5,0v-1h2v1h-2Zm5,0v-1h2v1h-2Zm5,0v-1h2v1h-2Zm5.01,0v-1h2v1h-2Zm5,0v-1h2v1h-2Zm5,0v-1h2v1h-2Zm5,0v-1h2v1h-2Zm5,0v-1h2v1h-2Zm5,0v-1h2v1h-2Zm5.01,0v-1h2v1h-2Zm5,0v-1h2v1h-2Zm5,0v-1h2v1h-2Zm5,0v-1h2v1h-2Zm5,0v-1h2v1h-2Zm5,0v-1h2.01v1h-2.01Zm5.01,0v-1h2v1h-2Zm5,0v-1h2v1h-2Zm5,0v-1h2v1h-2Zm5,0v-1h2v1h-2Zm5,0v-1h2v1h-2Zm5.01,0v-1h2v1h-2Zm5,0v-1h2v1h-2Zm5,0v-1h2v1h-2Zm5,0v-1h2v1h-2Zm5,0v-1h2v1h-2Zm5,0v-1h2v1h-2Zm5.01,0v-1h2v1h-2Zm5,0v-1h2v1h-2Zm5,0v-1h2v1h-2Zm5,0v-1h2v1h-2Zm5,0v-1h2v1h-2Zm5,0v-1h2.01v1h-2.01Zm5.01,0v-1h2v1h-2Zm5,0v-1h2v1h-2Zm5,0v-1h2v1h-2Zm5,0v-1h2v1h-2Zm5,0v-1h2v1h-2Zm5.01,0v-1h2v1h-2Zm5,0v-1h2v1h-2Zm5,0v-1h2v1h-2Zm5,0v-1h2v1h-2Zm5,0v-1h2v1h-2Zm5,0v-1h2v1h-2Zm5.01,0v-1h2v1h-2Zm5,0v-1h2v1h-2Zm5,0v-1h2v1h-2Zm5,0v-1h2v1h-2Zm5,0v-1h2v1h-2Zm5.01,0v-1h2v1h-2Zm5,0v-1h2v1h-2Zm5,0v-1h2v1h-2Zm5,0v-1h2v1h-2Zm5,0v-1h2v1h-2Zm5,0v-1h2v1h-2Zm5.01,0v-1h2v1h-2Zm5,0v-1h2v1h-2Zm5,0v-1h2v1h-2Zm5,0v-1h2v1h-2Zm5,0v-1h2v1h-2Zm5,0v-1h2.01v1h-2.01Zm5.01,0v-1h2v1h-2Zm5,0v-1h2v1h-2Zm5,0v-1h2v1h-2Zm5,0v-1h2v1h-2Zm5,0v-1h2v1h-2Zm5.01,0v-1h2v1h-2Zm5,0v-1h2v1h-2Zm5,0v-1h2v1h-2Zm5,0v-1h2v1h-2Zm5,0v-1h2v1h-2Zm5,0v-1h2v1h-2Zm5.01,0v-1h2v1h-2Zm5,0v-1h2v1h-2Zm5,0v-1h2v1h-2Zm5,0v-1h2v1h-2Zm5,0v-1h2v1h-2Zm5,0v-1h2.01v1h-2.01Zm5.01,0v-1h2v1h-2Zm5,0v-1h2v1h-2Zm5.01-.01h0.36l0.24-.01,0.24-.01h0.23l0.24-.01,0.23-.01,0.23-.02,0.24-.01h0.01l-0.06-1-0.01.01-0.23.01-0.23.01-0.23.01-0.23.01-0.23.01-0.22.01h-0.23l-0.23.01h-0.14l0.02,0.99h0Zm5.05-.39,0.19-.03,0.23-.04,0.22-.03,0.23-.04,0.23-.04,0.22-.04,0.23-.05,0.22-.04,0.22-.04-0.2-.98-0.21.04-0.22.05-0.22.04-0.22.04-0.22.04-0.22.03-0.22.04-0.22.03-0.19.03,0.15,0.99h0Zm4.95-1.09,0.14-.04,0.21-.07,0.22-.07,0.21-.06,0.22-.07,0.21-.07,0.22-.07,0.21-.08,0.21-.07,0.07-.03-0.33-.94-0.07.03-0.21.07-0.2.07-0.21.07-0.21.07-0.21.07-0.21.06-0.21.07-0.21.06-0.14.04,0.29,0.96h0Zm4.74-1.77,0.03-.01,0.2-.09,0.2-.09,0.2-.1,0.21-.1,0.2-.09,0.2-.1,0.2-.1,0.19-.1,0.2-.1-0.46-.88-0.19.09-0.19.1-0.2.1-0.19.09-0.2.1-0.19.09-0.2.09-0.2.1-0.19.09-0.03.01,0.41,0.9h0Zm4.46-2.4,0.07-.04,0.19-.12,0.18-.12,0.19-.12,0.18-.12,0.19-.13,0.18-.12,0.18-.13,0.19-.12,0.14-.1-0.58-.82-0.14.1-0.18.12-0.17.13-0.18.12-0.18.12-0.18.12-0.18.12-0.18.11-0.18.12-0.07.04,0.53,0.84h0Zm4.09-2.98,0.08-.07,0.17-.14,0.17-.15,0.17-.14,0.16-.15,0.17-.15,0.16-.15,0.16-.14,0.17-.15,0.11-.11-0.69-.72-0.1.1-0.16.14-0.16.15-0.16.14-0.16.14-0.16.15-0.16.14-0.17.14-0.16.14-0.08.07,0.64,0.76h0Zm3.65-3.52,0.08-.09,0.15-.16,0.14-.17,0.15-.16,0.14-.17,0.15-.17,0.14-.17,0.14-.17,0.14-.17,0.09-.1-0.78-.63-0.08.1-0.14.17-0.14.16-0.13.17-0.14.16-0.14.16-0.15.17-0.14.16-0.14.16-0.08.09,0.74,0.66h0Zm3.13-3.97,0.09-.12,0.12-.18,0.12-.19,0.12-.18,0.13-.19,0.12-.19,0.11-.18,0.12-.19,0.12-.19,0.05-.09-0.85-.51-0.06.08-0.11.19-0.11.18-0.12.18-0.11.18-0.12.18-0.12.18-0.12.18-0.12.18-0.08.12,0.82,0.56h0Zm2.57-4.36,0.08-.17,0.1-.2,0.1-.2,0.09-.21,0.1-.2,0.09-.2,0.09-.21,0.09-.2,0.09-.21,0.02-.04-0.92-.39-0.01.04-0.09.2-0.09.2-0.09.2-0.09.19-0.09.2-0.09.2-0.1.19-0.09.2-0.09.17,0.9,0.44h0Zm1.94-4.67,0.02-.06,0.07-.22,0.07-.21,0.07-.21,0.06-.22,0.07-.22,0.06-.21,0.07-.22,0.06-.22,0.04-.15-0.96-.26-0.04.14-0.07.22-0.06.21-0.06.21-0.06.21-0.07.21-0.06.21-0.07.21-0.07.2-0.02.06,0.95,0.32h0Zm1.27-4.9,0.04-.22,0.04-.23,0.04-.22,0.04-.23,0.03-.23,0.04-.22,0.03-.23,0.03-.23,0.03-.19-0.99-.13-0.03.19-0.03.22-0.03.22-0.04.22-0.03.23-0.04.22-0.03.22-0.04.22-0.04.21,0.98,0.18h0Zm0.58-5.03v-0.02l0.01-.24,0.01-.23,0.01-.24v-0.47l0.01-.24v-0.58h-1v0.81l-0.01.23v0.23l-0.01.23-0.01.23-0.01.22v0.03l1,0.04h0Zm0.04-5.01h-1v-2h1v2h0Zm0-5h-1v-1.99h1v1.99h0Zm0-4.99h-1v-2h1v2h0Zm0-4.99h-1v-2h1v2h0Zm0-5h-1v-2h1v2h0Zm0-4.99h-1v-2h1v2h0Zm0-5h-1v-1.99h1v1.99h0Zm0-4.99h-1v-2h1v2h0Zm0-4.99h-1v-2h1v2h0Zm0-5h-1v-1.99h1v1.99h0Zm0-4.99h-1v-2h1v2h0Zm0-5h-1v-1.99h1v1.99h0Zm0-4.99h-1v-2h1v2h0Zm0-4.99h-1v-2h1v2h0Zm0-5h-1v-2h1v2h0Zm0-4.99h-1v-2h1v2h0Zm0-5h-1V1710h1v1.99h0Zm0-4.99h-1v-2h1v2h0Zm0-4.99h-1v-2h1v2h0Zm0-5h-1v-1.72l-0.01-.23v-0.03l1-.03v0.28l0.01,0.24v1.49h0Zm-0.2-5.04-0.02-.19-0.02-.23-0.03-.23-0.03-.23-0.03-.23-0.03-.23-0.03-.23-0.04-.22-0.03-.21-0.99.15,0.03,0.21,0.04,0.22,0.03,0.22,0.03,0.22,0.03,0.23,0.03,0.22,0.03,0.22,0.02,0.23,0.02,0.19,0.99-.11h0Zm-0.87-4.98-0.04-.17-0.06-.22-0.05-.22-0.06-.22-0.06-.22-0.06-.22-0.07-.21-0.06-.22-0.07-.22-0.01-.03-0.95.29,0.01,0.03,0.06,0.21,0.06,0.21,0.06,0.22,0.07,0.21,0.05,0.21,0.06,0.21,0.06,0.22,0.05,0.21,0.04,0.17,0.97-.24h0Zm-1.55-4.82-0.03-.07-0.08-.2-0.09-.21-0.09-.21-0.08-.2-0.09-.21-0.1-.2-0.09-.2-0.09-.21-0.07-.14-0.9.42,0.06,0.14,0.09,0.2,0.09,0.19,0.09,0.2,0.09,0.2,0.08,0.2,0.09,0.2,0.08,0.2,0.08,0.21,0.03,0.07,0.93-.38h0Zm-2.21-4.55-0.07-.12-0.11-.2-0.11-.19-0.12-.19-0.11-.19-0.12-.19-0.11-.18-0.12-.19-0.12-.19-0.06-.09-0.84.54,0.06,0.09,0.11,0.18,0.12,0.18,0.11,0.19,0.12,0.18,0.11,0.18,0.11,0.19,0.11,0.19,0.11,0.18,0.07,0.13,0.86-.5h0Zm-2.81-4.21-0.1-.14-0.14-.17-0.14-.18-0.14-.17-0.13-.17-0.15-.17-0.14-.17-0.14-.17-0.14-.17-0.06-.06-0.75.65,0.05,0.06,0.14,0.16,0.14,0.17,0.14,0.17,0.13,0.16,0.14,0.17,0.13,0.17,0.14,0.16,0.13,0.17,0.1,0.14,0.79-.61h0Zm-3.35-3.79-0.14-.13-0.16-.16-0.16-.15-0.16-.15-0.16-.15-0.16-.15-0.16-.15-0.17-.15-0.17-.15-0.05-.04-0.65.75,0.04,0.04,0.16,0.14,0.16,0.14,0.16,0.15,0.16,0.15,0.16,0.14,0.15,0.15,0.16,0.15,0.15,0.15,0.14,0.13,0.7-.71h0Zm-3.84-3.3-0.17-.13-0.18-.13-0.18-.13-0.18-.13-0.18-.12-0.18-.13-0.19-.13-0.18-.12-0.18-.12-0.04-.03-0.55.83,0.03,0.02,0.18,0.12,0.18,0.13,0.18,0.12,0.17,0.12,0.18,0.13,0.18,0.12,0.17,0.13,0.17,0.12,0.17,0.13,0.6-.8h0Zm-4.25-2.75-0.03-.01-0.19-.11-0.2-.1-0.2-.11-0.19-.1-0.2-.1-0.2-.11-0.2-.1-0.2-.1-0.19-.09-0.44.9,0.19,0.09,0.19,0.1,0.2,0.09,0.19,0.1,0.19,0.1,0.2,0.1,0.19,0.1,0.19,0.11,0.19,0.1,0.02,0.02,0.49-.88h0Zm-4.6-2.14-0.09-.04-0.21-.07-0.21-.08-0.21-.08-0.21-.08-0.22-.07-0.21-.07-0.21-.07-0.22-.08-0.12-.03-0.3.95,0.11,0.03,0.21,0.07,0.21,0.07,0.21,0.07,0.2,0.07,0.21,0.08,0.21,0.07,0.2,0.08,0.21,0.08,0.09,0.03,0.35-.93h0Zm-4.84-1.49h-0.01l-0.22-.05-0.22-.05-0.23-.05-0.22-.04-0.22-.05-0.23-.04-0.23-.04-0.22-.05-0.19-.03-0.16.98,0.17,0.03,0.22,0.04,0.22,0.05,0.22,0.04,0.22,0.04,0.22,0.05,0.22,0.05,0.21,0.04,0.22,0.05,0.01,0.01,0.22-.98h0Zm-5-.8h-0.01l-0.23-.02-0.23-.02-0.24-.01-0.23-.02-0.24-.01-0.23-.01-0.23-.02-0.24-.01h-0.15l-0.03.99,0.15,0.01,0.22,0.01,0.23,0.01,0.23,0.01,0.23,0.02,0.23,0.01,0.22,0.02,0.23,0.02,0.22,0.01,0.01,0.01,0.09-1h0Zm-5.04-.14v0.99h-2V1659h2Zm-5,0v0.99h-2V1659h2Zm-5.01,0v0.99h-2V1659h2Zm-5,0v0.99h-2V1659h2Zm-5,0v0.99h-2V1659h2Zm-5,0v0.99h-2V1659h2Zm-5,0v0.99h-2V1659h2Zm-5,0v0.99h-2.01V1659h2.01Zm-5.01,0v0.99h-2V1659h2Zm-5,0v0.99h-2V1659h2Zm-5,0v0.99h-2V1659h2Zm-5,0v0.99h-2V1659h2Zm-5,0v0.99h-2V1659h2Zm-5.01,0v0.99h-2V1659h2Zm-5,0v0.99h-2V1659h2Zm-5,0v0.99h-2V1659h2Zm-5,0v0.99h-2V1659h2Zm-5,0v0.99h-2V1659h2Zm-5,0v0.99h-2V1659h2Zm-5.01,0v0.99h-2V1659h2Zm-5,0v0.99h-2V1659h2Zm-5,0v0.99h-2V1659h2Zm-5,0v0.99h-2V1659h2Zm-5,0v0.99h-2V1659h2Zm-5,0v0.99h-2.01V1659h2.01Zm-5.01,0v0.99h-2V1659h2Zm-5,0v0.99h-2V1659h2Zm-5,0v0.99h-2V1659h2Zm-5,0v0.99h-2V1659h2Zm-5,0v0.99h-2V1659h2Zm-5.01,0v0.99h-2V1659h2Zm-5,0v0.99h-2V1659h2Zm-5,0v0.99h-2V1659h2Zm-5,0v0.99h-2V1659h2Zm-5,0v0.99h-2V1659h2Zm-5,0v0.99h-2V1659h2Zm-5.01,0v0.99h-2V1659h2Zm-5,0v0.99h-2V1659h2Zm-5,0v0.99h-2V1659h2Zm-5,0v0.99h-2V1659h2Zm-5,0v0.99h-2V1659h2Zm-5.01,0v0.99h-2V1659h2Zm-5,0v0.99h-2V1659h2Zm-5,0v0.99h-2V1659h2Zm-5,0v0.99h-2V1659h2Zm-5,0v0.99h-2V1659h2Zm-5,0v0.99h-2V1659h2Zm-5.01,0v0.99h-2V1659h2Zm-5,0v0.99h-2V1659h2Zm-5,0v0.99h-2V1659h2Zm-5,0v0.99h-2V1659h2Zm-5,0v0.99h-2V1659h2Zm-5,0v0.99h-2.01V1659h2.01Zm-5.01,0v0.99h-2V1659h2Zm-5,0v0.99h-2V1659h2Zm-5,0v0.99h-2V1659h2Zm-5,0v0.99h-2V1659h2Zm-5,0v0.99h-2V1659h2Zm-5.01,0v0.99h-2V1659h2Zm-5,0v0.99h-2V1659h2Zm-5,0v0.99h-2V1659h2Zm-5,0v0.99h-2V1659h2Zm-5,0v0.99h-2V1659h2Zm-5,0v0.99h-2V1659h2Zm-5.01,0v0.99h-2V1659h2Zm-5,0v0.99h-2V1659h2Zm-5,0v0.99h-2V1659h2Zm-5,0v0.99h-2V1659h2Zm-5,0v0.99h-2V1659h2Zm-5,0v0.99h-2.01V1659h2.01Zm-5.01,0v0.99h-2V1659h2Zm-5,0v0.99h-2V1659h2Zm-5,0v0.99h-2V1659h2Zm-5,0v0.99h-2V1659h2Zm-5,0v0.99h-2V1659h2Zm-5.01,0v0.99h-2V1659h2Zm-5,0v0.99h-2V1659h2Zm-5,0v0.99h-2V1659h2Zm-5,0v0.99h-2V1659h2Zm-5,0v0.99h-2V1659h2Zm-5,0v0.99h-2V1659h2Zm-5.01,0v0.99h-2V1659h2Zm-5,0v0.99h-2V1659h2Zm-5,0v0.99h-2V1659h2Zm-5,0v0.99h-2V1659h2Zm-5,0v0.99h-2V1659h2Zm-5.01,0v0.99h-2V1659h2Zm-5,0v0.99h-2V1659h2Zm-5,0v0.99h-2V1659h2Zm-5,0v0.99h-2V1659h2Zm-5,0v0.99h-2V1659h2Zm-5,0v0.99h-2V1659h2Zm-5.01,0v0.99h-2V1659h2Zm-5,0v0.99h-2V1659h2Zm-5,0v0.99h-2V1659h2Zm-5,0v0.99h-2V1659h2Zm-5,0v0.99h-2V1659h2Zm-5,0v0.99h-2.01V1659h2.01Zm-5.01,0v0.99h-2V1659h2Zm-5,0v0.99h-2V1659h2Zm-5,0v0.99h-2V1659h2Zm-5,0v0.99h-2V1659h2Zm-5,0v0.99h-2V1659h2Zm-5,0v0.99h-2V1659h2Zm-5,0v0.99h-2V1659h2Zm-5,0v0.99h-2V1659h2Zm-5,0v0.99h-2V1659h2Zm-5,0v0.99h-2V1659h2Zm-5,0v0.99h-2V1659h2Zm-5,0v0.99h-2V1659h2Zm-5,0v0.99h-2V1659h2Zm-5,0v0.99h-2V1659h2Zm-5,0v0.99h-2V1659h2Zm-5,0v0.99h-2V1659h2Zm-5,0v0.99h-2V1659h2Zm-5,0v0.99h-2V1659h2Zm-5,0v0.99h-2V1659h2Zm-5,0v0.99h-2V1659h2Zm-5,0v0.99h-2V1659h2Zm-5,0v0.99h-2V1659h2Zm-5,0v0.99h-2V1659h2Zm-5,0v0.99h-2V1659h2Zm-5,0v0.99h-2V1659h2Zm-5,0v0.99h-2V1659h2Zm-5,0v0.99h-2V1659h2Zm-5,0v0.99h-2V1659h2Zm-5,0v0.99h-2V1659h2Zm-5,0v0.99h-2V1659h2Zm-5,0v0.99h-2V1659h2Zm-5,0v0.99h-2V1659h2Zm-5,0v0.99h-2V1659h2Zm-5,0v0.99h-2V1659h2Zm-5,0v0.99h-2V1659h2Zm-5,0v0.99h-2V1659h2Zm-5,0v0.99h-2V1659h2Zm-5,0v0.99h-2V1659h2Zm-5,0v0.99h-2V1659h2Zm-5,0v0.99h-2V1659h2Zm-5,0v0.99h-2V1659h2Zm-5,0v0.99h-2V1659h2Zm-5,0v0.99h-2V1659h2Zm-5,0v0.99h-2V1659h2Zm-5,0v0.99h-2V1659h2Zm-5,0v0.99h-2V1659h2Zm-5,0v0.99h-2V1659h2Zm-5,0v0.99h-2V1659h2Zm-5,0v0.99h-2V1659h2Zm-5,0v0.99h-2V1659h2Zm-5,0v0.99h-2V1659h2Zm-5,0v0.99h-2V1659h2Zm-5,0v0.99h-2V1659h2Zm-5,0v0.99h-2V1659h2Zm-5,0v0.99h-2V1659h2Zm-5,0v0.99h-2V1659h2Zm-5,0v0.99h-2V1659h2Zm-5,0v0.99h-2V1659h2Zm-5,0v0.99h-2V1659h2Zm-5,0v0.99h-2V1659h2Zm-5,0v0.99h-2V1659h2Zm-5,0v0.99h-2V1659h2Zm-5,0v0.99h-2V1659h2Zm-5,0v0.99h-2V1659h2Zm-5,0v0.99h-2V1659h2Zm-5,0v0.99h-2V1659h2Zm-5,0v0.99h-2V1659h2Zm-5,0v0.99h-2V1659h2Zm-5,0v0.99h-2V1659h2Zm-5,0v0.99h-2V1659h2Zm-5,0v0.99h-2V1659h2Zm-5,0v0.99h-2V1659h2Zm-5,0v0.99h-2V1659h2Zm-5,0v0.99h-2V1659h2Zm-5,0v0.99h-2V1659h2Zm-5,0v0.99h-2V1659h2Zm-5,0v0.99h-2V1659h2Zm-5,0v0.99h-2V1659h2Zm-5,0v0.99h-2V1659h2Zm-5,0v0.99h-2V1659h2Zm-5,0v0.99h-2V1659h2Zm-5,0v0.99h-2V1659h2Zm-5,0v0.99h-2V1659h2Zm-5,0v0.99h-2V1659h2Zm-5,0v0.99h-2V1659h2Zm-5,0v0.99h-2V1659h2Zm-5,0v0.99h-2V1659h2Zm-5,0v0.99h-2V1659h2Zm-5,0v0.99h-2V1659h2Zm-5,0v0.99h-2V1659h2Zm-5,0v0.99h-2V1659h2Zm-5,0v0.99h-2V1659h2Zm-5,0v0.99h-2V1659h2Zm-5,0v0.99h-2V1659h2Zm-5,0v0.99h-2V1659h2Zm-5,0v0.99h-2V1659h2Zm-5,0v0.99h-2V1659h2Zm-5,0v0.99h-2V1659h2Zm-5,0v0.99h-2V1659h2Zm-5,0v0.99h-2V1659h2Zm-5,0v0.99h-2V1659h2Zm-5,0v0.99h-2V1659h2Zm-5,0v0.99h-2V1659h2Zm-5,0v0.99h-2V1659h2Zm-5,0v0.99h-2V1659h2Zm-5,0v0.99h-2V1659h2Zm-5,0v0.99h-2V1659h2Zm-5,0v0.99h-2V1659h2Zm-5,0v0.99h-2V1659h2Zm-5,0v0.99h-2V1659h2Zm-5,0v0.99h-2V1659h2Zm-5,0v0.99h-2V1659h2Zm-5,0v0.99h-2V1659h2Zm-5,0v0.99h-2V1659h2Zm-5,0v0.99h-2V1659h2Zm-5,0v0.99h-2V1659h2Zm-5,0v0.99h-2V1659h2Zm-5,0v0.99h-2V1659h2Zm-5,0v0.99h-2V1659h2Zm-5,0v0.99h-2V1659h2Zm-5,0v0.99h-2V1659h2Zm-5,0v0.99h-2V1659h2Zm-5,0v0.99h-2V1659h2Zm-5,0v0.99h-2V1659h2Zm-5,0v0.99h-2V1659h2Zm-5,0v0.99h-2V1659h2Zm-5,0v0.99h-2V1659h2Zm-5,0v0.99h-2V1659h2Zm-5,0v0.99h-2V1659h2Zm-5,0v0.99h-2V1659h2Zm-5,0v0.99h-2V1659h2Zm-5,0v0.99h-2V1659h2Zm-5,0v0.99h-2V1659h2Zm-5,0v0.99h-2V1659h2Zm-5,0v0.99h-2V1659h2Zm-5,0v0.99h-2V1659h2Zm-5,0v0.99h-2V1659h2Zm-5,0v0.99h-2V1659h2Zm-5,0v0.99h-2V1659h2Zm-5,0v0.99h-2V1659h2Zm-5,0v0.99h-2V1659h2Zm-5,0v0.99h-2V1659h2Zm-5,0v0.99h-2V1659h2Zm-5,0v0.99h-2V1659h2Zm-5,0v0.99h-2V1659h2Zm-5,0v0.99h-2V1659h2Zm-5,0v0.99h-2V1659h2Zm-5,0v0.99h-2V1659h2Z" transform="translate(-274 -1659)"/>
</svg>
