<svg xmlns="http://www.w3.org/2000/svg" xmlns:xlink="http://www.w3.org/1999/xlink" preserveAspectRatio="xMidYMid" width="52.969" height="47" viewBox="0 0 52.969 47">
  <defs>
    <style>
      .cls-1 {
        fill: #1eaf26;
        fill-rule: evenodd;
      }
    </style>
  </defs>
  <path d="M34.129,5.328 L5.313,5.328 L5.313,26.680 L20.964,11.010 L19.212,9.260 L26.276,9.245 L26.290,16.328 L24.714,14.754 L22.630,16.840 L6.917,32.573 L-0.001,39.499 L-0.001,2.664 L-0.001,-0.001 L2.656,-0.001 L39.451,-0.001 L34.129,5.328 L34.129,5.328 ZM15.062,41.671 L43.420,13.272 L43.446,13.245 L45.084,11.606 L51.281,5.401 L52.965,7.083 L52.950,-0.001 L45.887,0.014 L47.532,1.657 L13.994,35.235 L13.997,35.238 L2.251,47.000 L3.931,47.000 L9.741,47.000 L44.210,47.000 L46.867,47.000 L46.867,44.335 L46.867,17.320 L41.553,22.639 L41.553,41.671 L15.062,41.671 Z" class="cls-1"/>
</svg>
