<svg xmlns="http://www.w3.org/2000/svg" xmlns:xlink="http://www.w3.org/1999/xlink" preserveAspectRatio="xMidYMid" width="9" height="11" viewBox="0 0 9 11">
  <defs>
    <style>
      .cls-1 {
        fill: #1eaf26;
        fill-rule: evenodd;
      }
    </style>
  </defs>
  <path d="M8.780,5.218 C8.634,5.072 8.457,4.999 8.249,4.999 L7.999,4.999 L7.999,3.499 C7.999,2.540 7.655,1.717 6.968,1.030 C6.281,0.342 5.458,-0.002 4.500,-0.002 C3.542,-0.002 2.719,0.342 2.032,1.030 C1.344,1.717 1.001,2.540 1.001,3.499 L1.001,4.999 L0.751,4.999 C0.542,4.999 0.365,5.072 0.219,5.218 C0.074,5.364 0.001,5.541 0.001,5.750 L0.001,10.251 C0.001,10.459 0.074,10.636 0.219,10.782 C0.365,10.928 0.542,11.001 0.751,11.001 L8.249,11.001 C8.458,11.001 8.635,10.928 8.780,10.782 C8.926,10.636 8.999,10.459 8.999,10.251 L8.999,5.750 C8.999,5.541 8.926,5.364 8.780,5.218 ZM6.500,4.999 L2.500,4.999 L2.500,3.499 C2.500,2.947 2.696,2.476 3.086,2.085 C3.477,1.694 3.948,1.498 4.500,1.498 C5.052,1.498 5.523,1.694 5.914,2.085 C6.304,2.476 6.500,2.947 6.500,3.499 L6.500,4.999 Z" class="cls-1"/>
</svg>
