<svg xmlns="http://www.w3.org/2000/svg" xmlns:xlink="http://www.w3.org/1999/xlink" preserveAspectRatio="xMidYMid" width="69" height="69" viewBox="0 0 69 69">
  <defs>
    <style>
      .cls-1 {
        fill: #fff;
        fill-rule: evenodd;
      }
    </style>
  </defs>
  <path d="M65.550,54.049 L64.400,54.049 L64.400,67.849 C64.400,68.485 63.885,69.000 63.250,69.000 L8.050,69.000 C3.611,69.000 -0.000,65.387 -0.000,60.950 L-0.000,14.949 C-0.000,10.512 3.611,6.900 8.050,6.900 L14.950,6.900 L14.950,1.149 C14.950,0.514 15.465,-0.000 16.100,-0.000 L41.400,-0.000 C42.035,-0.000 42.550,0.514 42.550,1.149 L42.550,5.750 L47.150,5.750 L63.250,5.750 C63.885,5.750 64.400,6.263 64.400,6.900 L64.400,21.849 L64.400,35.649 L65.550,35.649 C67.452,35.649 69.000,37.197 69.000,39.100 L69.000,50.600 C69.000,52.502 67.452,54.049 65.550,54.049 ZM14.950,9.200 L8.050,9.200 C4.879,9.200 2.300,11.778 2.300,14.949 C2.300,18.120 4.879,20.700 8.050,20.700 L14.950,20.700 L14.950,9.200 ZM40.250,2.300 L17.250,2.300 L17.250,20.700 L20.700,20.700 L20.700,6.900 C20.700,6.263 21.215,5.750 21.850,5.750 L40.250,5.750 L40.250,2.300 ZM46.000,8.050 L23.000,8.050 L23.000,20.700 L26.450,20.700 L26.450,12.649 C26.450,12.014 26.965,11.500 27.600,11.500 L46.000,11.500 L46.000,8.050 ZM28.750,13.800 L28.750,20.700 L51.750,20.700 L51.750,13.800 L28.750,13.800 ZM62.100,8.050 L48.300,8.050 L48.300,11.500 L52.900,11.500 C53.535,11.500 54.050,12.014 54.050,12.649 L54.050,20.700 L62.100,20.700 L62.100,8.050 ZM62.100,23.000 L52.900,23.000 L27.600,23.000 L8.050,23.000 C5.799,23.000 3.762,22.071 2.300,20.579 L2.300,60.950 C2.300,64.120 4.879,66.700 8.050,66.700 L62.100,66.700 L62.100,54.049 L54.050,54.049 C48.977,54.049 44.850,49.922 44.850,44.849 C44.850,39.777 48.977,35.649 54.050,35.649 L62.100,35.649 L62.100,23.000 ZM66.700,39.100 C66.700,38.464 66.184,37.950 65.550,37.950 L54.050,37.950 C50.245,37.950 47.150,41.044 47.150,44.849 C47.150,48.655 50.245,51.750 54.050,51.750 L65.550,51.750 C66.184,51.750 66.700,51.234 66.700,50.600 L66.700,39.100 ZM54.050,49.450 C51.513,49.450 49.450,47.386 49.450,44.849 C49.450,42.313 51.513,40.250 54.050,40.250 C56.587,40.250 58.650,42.313 58.650,44.849 C58.650,47.386 56.587,49.450 54.050,49.450 ZM54.050,42.549 C52.782,42.549 51.750,43.581 51.750,44.849 C51.750,46.118 52.782,47.149 54.050,47.149 C55.318,47.149 56.350,46.118 56.350,44.849 C56.350,43.581 55.318,42.549 54.050,42.549 ZM37.950,59.800 L40.250,59.800 L40.250,62.100 L37.950,62.100 L37.950,59.800 ZM37.950,55.200 L40.250,55.200 L40.250,57.500 L37.950,57.500 L37.950,55.200 ZM37.950,50.600 L40.250,50.600 L40.250,52.900 L37.950,52.900 L37.950,50.600 ZM37.950,46.000 L40.250,46.000 L40.250,48.300 L37.950,48.300 L37.950,46.000 ZM37.950,41.400 L40.250,41.400 L40.250,43.700 L37.950,43.700 L37.950,41.400 ZM37.950,36.800 L40.250,36.800 L40.250,39.100 L37.950,39.100 L37.950,36.800 ZM37.950,32.200 L40.250,32.200 L40.250,34.500 L37.950,34.500 L37.950,32.200 ZM37.950,27.600 L40.250,27.600 L40.250,29.900 L37.950,29.900 L37.950,27.600 ZM33.350,59.800 L35.650,59.800 L35.650,62.100 L33.350,62.100 L33.350,59.800 ZM33.350,27.600 L35.650,27.600 L35.650,29.900 L33.350,29.900 L33.350,27.600 ZM31.050,41.400 C31.050,40.131 30.018,39.100 28.750,39.100 L26.450,39.100 C25.181,39.100 24.150,40.131 24.150,41.400 C24.150,42.668 25.181,43.700 26.450,43.700 L28.750,43.700 C31.287,43.700 33.350,45.762 33.350,48.300 C33.350,50.837 31.287,52.900 28.750,52.900 L28.750,55.200 L26.450,55.200 L26.450,52.900 C23.913,52.900 21.850,50.837 21.850,48.300 L24.150,48.300 C24.150,49.568 25.181,50.600 26.450,50.600 L28.750,50.600 C30.018,50.600 31.050,49.568 31.050,48.300 C31.050,47.031 30.018,46.000 28.750,46.000 L26.450,46.000 C23.913,46.000 21.850,43.936 21.850,41.400 C21.850,38.863 23.913,36.800 26.450,36.800 L26.450,34.500 L28.750,34.500 L28.750,36.800 C31.287,36.800 33.350,38.863 33.350,41.400 L31.050,41.400 ZM28.750,27.600 L31.050,27.600 L31.050,29.900 L28.750,29.900 L28.750,27.600 ZM24.150,27.600 L26.450,27.600 L26.450,29.900 L24.150,29.900 L24.150,27.600 ZM19.550,27.600 L21.850,27.600 L21.850,29.900 L19.550,29.900 L19.550,27.600 ZM14.950,59.800 L17.250,59.800 L17.250,62.100 L14.950,62.100 L14.950,59.800 ZM14.950,55.200 L17.250,55.200 L17.250,57.500 L14.950,57.500 L14.950,55.200 ZM14.950,50.600 L17.250,50.600 L17.250,52.900 L14.950,52.900 L14.950,50.600 ZM14.950,46.000 L17.250,46.000 L17.250,48.300 L14.950,48.300 L14.950,46.000 ZM14.950,41.400 L17.250,41.400 L17.250,43.700 L14.950,43.700 L14.950,41.400 ZM14.950,36.800 L17.250,36.800 L17.250,39.100 L14.950,39.100 L14.950,36.800 ZM14.950,32.200 L17.250,32.200 L17.250,34.500 L14.950,34.500 L14.950,32.200 ZM14.950,27.600 L17.250,27.600 L17.250,29.900 L14.950,29.900 L14.950,27.600 ZM21.850,62.100 L19.550,62.100 L19.550,59.800 L21.850,59.800 L21.850,62.100 ZM26.450,62.100 L24.150,62.100 L24.150,59.800 L26.450,59.800 L26.450,62.100 ZM31.050,62.100 L28.750,62.100 L28.750,59.800 L31.050,59.800 L31.050,62.100 Z" class="cls-1"/>
</svg>
