<svg xmlns="http://www.w3.org/2000/svg" xmlns:xlink="http://www.w3.org/1999/xlink" preserveAspectRatio="xMidYMid" width="16" height="15" viewBox="0 0 16 15">
  <defs>
    <style>
      .cls-1 {
        fill: #dcdcdc;
        fill-rule: evenodd;
      }
    </style>
  </defs>
  <path d="M15.385,15.000 L0.615,15.000 C0.246,15.000 -0.000,14.750 -0.000,14.375 L-0.000,10.625 C-0.000,10.250 0.246,10.000 0.615,10.000 L1.846,10.000 C2.215,10.000 2.462,10.250 2.462,10.625 L2.462,12.187 C2.462,12.375 2.585,12.500 2.769,12.500 L13.231,12.500 C13.415,12.500 13.538,12.375 13.538,12.187 L13.538,10.625 C13.538,10.250 13.785,10.000 14.154,10.000 L15.385,10.000 C15.754,10.000 16.000,10.250 16.000,10.625 L16.000,14.375 C16.000,14.750 15.754,15.000 15.385,15.000 ZM8.431,9.812 C8.308,9.937 8.123,10.000 8.000,10.000 C7.877,10.000 7.692,9.937 7.569,9.812 L3.877,6.125 C3.754,6.000 3.692,5.875 3.692,5.687 C3.692,5.500 3.754,5.375 3.877,5.250 L4.738,4.375 C4.861,4.250 4.985,4.187 5.169,4.187 C5.354,4.187 5.477,4.250 5.600,4.375 L6.215,5.000 C6.461,5.187 6.769,5.000 6.769,4.750 L6.769,0.625 C6.769,0.250 7.015,-0.000 7.385,-0.000 L8.615,-0.000 C8.985,-0.000 9.231,0.250 9.231,0.625 L9.231,4.687 C9.231,5.000 9.600,5.125 9.785,4.937 L10.400,4.312 C10.523,4.187 10.646,4.125 10.831,4.125 C11.015,4.125 11.138,4.187 11.261,4.312 L12.123,5.187 C12.246,5.312 12.308,5.437 12.308,5.625 C12.308,5.812 12.246,5.937 12.123,6.062 L8.431,9.812 Z" class="cls-1"/>
</svg>
