<svg xmlns="http://www.w3.org/2000/svg" xmlns:xlink="http://www.w3.org/1999/xlink" preserveAspectRatio="xMidYMid" width="66" height="66" viewBox="0 0 66 66">
  <defs>
    <style>
      .cls-1 {
        fill: #fff;
        fill-rule: evenodd;
      }
    </style>
  </defs>
  <path d="M64.900,24.324 L57.200,24.324 L52.800,24.324 L45.412,24.324 L56.907,36.841 C57.095,37.047 57.200,37.314 57.200,37.592 L57.200,44.226 C57.200,44.520 57.084,44.801 56.878,45.008 L55.516,46.376 C55.882,46.951 56.100,47.615 56.100,48.314 C56.100,49.595 55.417,50.790 54.317,51.434 L30.319,65.506 C29.759,65.835 29.135,65.999 28.509,65.999 C27.960,65.999 27.409,65.871 26.900,65.616 L15.140,59.705 L12.100,59.705 L12.100,60.811 C12.100,61.422 11.608,61.916 11.000,61.916 L1.100,61.916 C0.492,61.916 0.000,61.422 0.000,60.811 L0.000,43.120 C0.000,42.509 0.492,42.014 1.100,42.014 L11.000,42.014 L19.800,42.014 L19.800,37.592 C19.800,37.314 19.904,37.047 20.093,36.841 L31.588,24.324 L29.700,24.324 C27.881,24.324 26.400,22.836 26.400,21.007 C26.400,20.155 26.730,19.384 27.258,18.795 C26.731,18.208 26.400,17.437 26.400,16.584 C26.400,15.732 26.730,14.961 27.258,14.373 C26.731,13.785 26.400,13.014 26.400,12.161 C26.400,11.310 26.730,10.539 27.258,9.950 C26.731,9.363 26.400,8.592 26.400,7.739 C26.400,5.910 27.881,4.423 29.700,4.423 L30.602,4.423 C30.022,3.428 29.700,2.296 29.700,1.105 C29.700,0.494 30.192,-0.000 30.800,-0.000 L45.100,-0.000 C48.133,-0.000 50.600,2.480 50.600,5.528 L50.600,6.634 L52.800,6.634 L57.200,6.634 L64.900,6.634 C65.508,6.634 66.000,7.128 66.000,7.739 L66.000,23.218 C66.000,23.830 65.508,24.324 64.900,24.324 ZM9.900,44.226 L2.200,44.226 L2.200,59.705 L9.900,59.705 L9.900,44.226 ZM12.100,44.226 L12.100,57.494 L15.400,57.494 C15.570,57.494 15.740,57.533 15.893,57.611 L27.885,63.637 C28.308,63.851 28.805,63.834 29.212,63.596 L53.208,49.524 C53.635,49.274 53.900,48.810 53.900,48.313 C53.900,47.899 53.718,47.508 53.402,47.240 C53.086,46.972 52.672,46.859 52.264,46.931 L31.976,50.478 L32.867,51.374 C33.662,52.173 34.100,53.237 34.100,54.367 C34.100,56.699 32.210,58.599 29.889,58.599 C28.764,58.599 27.707,58.159 26.911,57.359 L21.222,51.642 L22.778,50.078 L28.467,55.797 C28.841,56.172 29.360,56.388 29.889,56.388 C30.998,56.388 31.900,55.481 31.900,54.367 C31.900,53.834 31.685,53.313 31.311,52.937 L22.645,44.226 L12.100,44.226 ZM22.000,38.024 L22.000,42.014 L23.100,42.014 C23.393,42.014 23.672,42.131 23.878,42.338 L30.074,48.566 L51.888,44.753 C52.544,44.639 53.201,44.730 53.806,44.968 L55.000,43.768 L55.000,38.024 L42.094,23.970 C41.906,23.763 41.801,23.496 41.801,23.218 L41.801,12.974 C40.588,12.122 39.633,10.929 39.069,9.532 C38.972,9.683 38.860,9.819 38.742,9.950 C39.269,10.539 39.600,11.310 39.600,12.161 C39.600,13.014 39.270,13.785 38.742,14.373 C39.269,14.961 39.600,15.732 39.600,16.584 C39.600,17.437 39.270,18.208 38.742,18.795 C39.269,19.384 39.600,20.155 39.600,21.007 C39.600,22.836 38.119,24.324 36.300,24.324 L34.582,24.324 L22.000,38.024 ZM29.700,22.113 L36.300,22.113 C36.907,22.113 37.400,21.617 37.400,21.007 C37.400,20.396 36.907,19.901 36.300,19.901 L29.700,19.901 C29.093,19.901 28.600,20.396 28.600,21.007 C28.600,21.617 29.093,22.113 29.700,22.113 ZM29.700,17.690 L36.300,17.690 C36.907,17.690 37.400,17.195 37.400,16.584 C37.400,15.974 36.907,15.479 36.300,15.479 L29.700,15.479 C29.093,15.479 28.600,15.974 28.600,16.584 C28.600,17.195 29.093,17.690 29.700,17.690 ZM29.700,13.267 L36.300,13.267 C36.907,13.267 37.400,12.772 37.400,12.161 C37.400,11.552 36.907,11.056 36.300,11.056 L29.700,11.056 C29.093,11.056 28.600,11.552 28.600,12.161 C28.600,12.772 29.093,13.267 29.700,13.267 ZM29.700,6.634 C29.093,6.634 28.600,7.129 28.600,7.739 C28.600,8.349 29.093,8.845 29.700,8.845 L36.300,8.845 C36.907,8.845 37.400,8.349 37.400,7.739 C37.400,7.483 37.299,7.257 37.152,7.069 C37.107,7.010 37.061,6.957 37.007,6.910 C36.936,6.849 36.860,6.795 36.775,6.753 C36.742,6.737 36.708,6.723 36.673,6.710 C36.555,6.667 36.432,6.634 36.300,6.634 L33.030,6.634 L29.700,6.634 ZM51.700,8.845 L49.500,8.845 C48.892,8.845 48.400,8.351 48.400,7.739 L48.400,5.528 C48.400,3.699 46.919,2.211 45.100,2.211 L32.041,2.211 C32.261,3.061 32.735,3.827 33.417,4.423 L36.300,4.423 C36.536,4.423 36.765,4.450 36.990,4.498 C37.003,4.501 37.015,4.506 37.028,4.509 C37.240,4.558 37.444,4.626 37.639,4.713 C37.652,4.718 37.664,4.727 37.677,4.734 C37.870,4.824 38.051,4.929 38.222,5.054 C38.244,5.069 38.262,5.088 38.283,5.104 C38.442,5.225 38.589,5.358 38.723,5.504 C38.731,5.514 38.741,5.519 38.749,5.528 L39.600,5.528 C40.208,5.528 40.700,6.022 40.700,6.634 C40.700,9.682 43.167,12.161 46.200,12.161 L46.200,14.373 C45.435,14.373 44.697,14.257 44.000,14.047 L44.000,22.113 L51.700,22.113 L51.700,8.845 ZM56.100,8.845 L53.900,8.845 L53.900,22.113 L56.100,22.113 L56.100,8.845 ZM63.800,8.845 L58.300,8.845 L58.300,22.113 L63.800,22.113 L63.800,8.845 ZM37.400,27.641 L39.600,27.641 L39.600,28.747 C42.027,28.747 44.000,30.730 44.000,33.169 L41.800,33.169 C41.800,31.949 40.813,30.958 39.600,30.958 L37.400,30.958 C36.187,30.958 35.200,31.949 35.200,33.169 C35.200,34.388 36.187,35.381 37.400,35.381 L39.600,35.381 C42.027,35.381 44.000,37.364 44.000,39.803 C44.000,42.242 42.027,44.226 39.600,44.226 L39.600,45.331 L37.400,45.331 L37.400,44.226 C34.973,44.226 33.000,42.242 33.000,39.803 L35.200,39.803 C35.200,41.022 36.187,42.014 37.400,42.014 L39.600,42.014 C40.813,42.014 41.800,41.022 41.800,39.803 C41.800,38.583 40.813,37.592 39.600,37.592 L37.400,37.592 C34.973,37.592 33.000,35.608 33.000,33.169 C33.000,30.730 34.973,28.747 37.400,28.747 L37.400,27.641 ZM7.700,57.494 L5.500,57.494 L5.500,55.282 L7.700,55.282 L7.700,57.494 ZM22.000,6.634 L24.200,6.634 L24.200,8.845 L22.000,8.845 L22.000,6.634 ZM17.600,6.634 L19.800,6.634 L19.800,8.845 L17.600,8.845 L17.600,6.634 ZM13.200,6.634 L15.400,6.634 L15.400,8.845 L13.200,8.845 L13.200,6.634 ZM8.800,6.634 L11.000,6.634 L11.000,8.845 L8.800,8.845 L8.800,6.634 ZM4.400,37.592 L6.600,37.592 L6.600,39.803 L4.400,39.803 L4.400,37.592 ZM4.400,33.169 L6.600,33.169 L6.600,35.381 L4.400,35.381 L4.400,33.169 ZM4.400,28.747 L6.600,28.747 L6.600,30.958 L4.400,30.958 L4.400,28.747 ZM4.400,24.324 L6.600,24.324 L6.600,26.535 L4.400,26.535 L4.400,24.324 ZM4.400,19.901 L6.600,19.901 L6.600,22.113 L4.400,22.113 L4.400,19.901 ZM4.400,15.479 L6.600,15.479 L6.600,17.690 L4.400,17.690 L4.400,15.479 ZM4.400,11.056 L6.600,11.056 L6.600,13.267 L4.400,13.267 L4.400,11.056 ZM4.400,6.634 L6.600,6.634 L6.600,8.845 L4.400,8.845 L4.400,6.634 ZM49.500,59.705 L47.300,59.705 L47.300,57.494 L49.500,57.494 L49.500,59.705 ZM53.900,59.705 L51.700,59.705 L51.700,57.494 L53.900,57.494 L53.900,59.705 ZM58.300,59.705 L56.100,59.705 L56.100,57.494 L58.300,57.494 L58.300,59.705 ZM62.700,28.747 L60.500,28.747 L60.500,26.535 L62.700,26.535 L62.700,28.747 ZM62.700,33.169 L60.500,33.169 L60.500,30.958 L62.700,30.958 L62.700,33.169 ZM62.700,37.592 L60.500,37.592 L60.500,35.381 L62.700,35.381 L62.700,37.592 ZM62.700,42.014 L60.500,42.014 L60.500,39.803 L62.700,39.803 L62.700,42.014 ZM62.700,46.437 L60.500,46.437 L60.500,44.226 L62.700,44.226 L62.700,46.437 ZM62.700,50.860 L60.500,50.860 L60.500,48.648 L62.700,48.648 L62.700,50.860 ZM62.700,55.282 L60.500,55.282 L60.500,53.071 L62.700,53.071 L62.700,55.282 ZM62.700,59.705 L60.500,59.705 L60.500,57.494 L62.700,57.494 L62.700,59.705 Z" class="cls-1"/>
</svg>
