<svg xmlns="http://www.w3.org/2000/svg" xmlns:xlink="http://www.w3.org/1999/xlink" preserveAspectRatio="xMidYMid" width="72" height="53" viewBox="0 0 72 53">
  <defs>
    <style>
      .cls-1 {
        fill: #fff;
        fill-rule: evenodd;
      }
    </style>
  </defs>
  <path d="M71.663,16.253 L64.681,23.187 C64.456,23.410 64.162,23.522 63.868,23.522 C63.573,23.522 63.279,23.410 63.054,23.187 L62.451,22.588 L59.020,25.995 C58.556,26.456 58.252,27.022 58.142,27.630 C57.485,31.264 55.748,34.565 53.118,37.177 L52.196,38.093 C52.659,38.738 52.909,39.508 52.909,40.316 C52.909,41.340 52.507,42.305 51.777,43.029 C51.234,43.569 50.558,43.928 49.821,44.077 C49.892,44.371 49.930,44.675 49.930,44.985 C49.930,46.011 49.528,46.976 48.798,47.701 C48.043,48.448 47.053,48.823 46.063,48.823 C45.264,48.823 44.465,48.579 43.791,48.091 C43.600,48.604 43.299,49.073 42.899,49.471 C42.145,50.219 41.155,50.593 40.165,50.593 C39.175,50.593 38.186,50.219 37.432,49.471 L37.314,49.354 C37.123,49.847 36.829,50.300 36.441,50.685 C35.712,51.410 34.741,51.810 33.707,51.810 C33.272,51.810 32.841,51.735 32.434,51.595 C32.373,51.663 32.311,51.731 32.245,51.796 C31.464,52.572 30.424,53.000 29.319,53.000 C28.213,53.000 27.174,52.572 26.392,51.796 C25.562,50.972 25.160,49.882 25.184,48.800 C25.153,48.801 25.122,48.802 25.092,48.802 C23.986,48.802 22.947,48.375 22.165,47.599 C21.306,46.745 20.904,45.606 20.960,44.487 C20.891,44.490 20.822,44.493 20.753,44.493 C19.693,44.493 18.634,44.092 17.827,43.290 C17.045,42.515 16.614,41.482 16.614,40.384 C16.614,39.323 17.018,38.324 17.751,37.558 L17.369,37.178 C14.770,34.596 13.040,31.335 12.367,27.749 C12.237,27.057 11.898,26.423 11.387,25.915 L9.360,23.902 L8.943,24.315 C8.727,24.530 8.435,24.650 8.130,24.650 C7.825,24.650 7.533,24.530 7.317,24.315 L0.335,17.382 C-0.114,16.936 -0.114,16.213 0.335,15.767 L15.879,0.332 C16.328,-0.115 17.056,-0.115 17.505,0.332 L24.488,7.265 C24.703,7.479 24.824,7.770 24.824,8.073 C24.824,8.375 24.703,8.666 24.488,8.880 L24.145,9.220 L27.019,12.074 C28.005,13.052 29.459,13.356 30.817,12.866 C31.667,12.559 32.557,12.404 33.465,12.404 C34.092,12.404 34.713,12.479 35.318,12.627 C36.769,11.839 38.402,11.422 40.073,11.422 C41.480,11.422 42.898,11.726 44.174,12.301 C45.534,12.914 47.147,12.633 48.186,11.601 L49.786,10.012 L49.090,9.320 C48.874,9.106 48.753,8.816 48.753,8.513 C48.753,8.210 48.874,7.920 49.090,7.705 L56.072,0.772 C56.521,0.326 57.249,0.326 57.698,0.772 L71.663,14.639 C71.878,14.853 72.000,15.143 72.000,15.447 C72.000,15.749 71.879,16.039 71.663,16.253 ZM28.018,50.181 C28.366,50.526 28.827,50.716 29.319,50.716 C29.810,50.716 30.271,50.526 30.619,50.181 C31.336,49.469 31.336,48.311 30.619,47.599 C30.260,47.243 29.789,47.065 29.319,47.065 C28.847,47.065 28.377,47.243 28.018,47.599 C27.301,48.311 27.301,49.469 28.018,50.181 ZM23.791,45.984 C24.139,46.328 24.600,46.519 25.091,46.519 C25.583,46.519 26.045,46.329 26.392,45.984 C27.109,45.272 27.109,44.113 26.392,43.402 C26.033,43.045 25.562,42.867 25.092,42.867 C24.620,42.867 24.150,43.045 23.791,43.402 C23.074,44.113 23.074,45.272 23.791,45.984 ZM19.453,41.676 C20.170,42.388 21.337,42.387 22.054,41.676 C22.770,40.964 22.770,39.806 22.053,39.093 C21.695,38.738 21.224,38.559 20.753,38.559 C20.282,38.559 19.812,38.738 19.453,39.093 C19.106,39.438 18.914,39.897 18.914,40.385 C18.914,40.872 19.106,41.331 19.453,41.676 ZM16.692,2.754 L2.774,16.575 L8.130,21.893 L22.048,8.073 L16.692,2.754 ZM31.602,15.012 C30.930,15.255 30.233,15.373 29.543,15.373 C28.002,15.373 26.498,14.786 25.393,13.688 L22.519,10.835 L10.986,22.287 L13.013,24.300 C13.854,25.135 14.413,26.183 14.628,27.330 C15.216,30.461 16.726,33.308 18.996,35.563 L19.820,36.382 C21.165,36.075 22.634,36.440 23.680,37.478 C24.538,38.330 24.940,39.468 24.885,40.587 C24.953,40.584 25.022,40.582 25.091,40.582 C26.197,40.582 27.236,41.010 28.018,41.786 C28.848,42.610 29.250,43.700 29.226,44.782 C29.257,44.781 29.288,44.779 29.319,44.779 C30.424,44.779 31.463,45.207 32.245,45.983 C33.208,46.939 33.596,48.253 33.410,49.498 C33.507,49.516 33.605,49.526 33.707,49.526 C34.125,49.526 34.518,49.364 34.813,49.071 C35.110,48.776 35.273,48.385 35.273,47.970 C35.273,47.555 35.110,47.165 34.815,46.873 C34.813,46.870 34.811,46.868 34.809,46.866 L27.295,39.404 C26.846,38.959 26.846,38.235 27.295,37.790 C27.744,37.343 28.472,37.343 28.921,37.790 L39.058,47.856 C39.669,48.462 40.662,48.462 41.272,47.856 C41.568,47.562 41.731,47.172 41.731,46.757 C41.731,46.348 41.573,45.964 41.288,45.672 L31.939,36.389 C31.489,35.943 31.489,35.220 31.939,34.774 C32.388,34.328 33.116,34.328 33.565,34.774 L42.884,44.028 C42.887,44.031 42.891,44.035 42.895,44.037 C42.906,44.050 42.917,44.061 42.929,44.073 L44.956,46.086 C45.566,46.691 46.560,46.691 47.172,46.085 C47.467,45.792 47.630,45.401 47.630,44.985 C47.630,44.570 47.467,44.179 47.171,43.885 L35.154,31.954 C34.705,31.509 34.705,30.785 35.154,30.340 C35.603,29.893 36.331,29.893 36.780,30.339 L47.936,41.414 C48.233,41.709 48.626,41.871 49.044,41.871 C49.462,41.871 49.855,41.709 50.150,41.415 C50.446,41.121 50.609,40.731 50.609,40.315 C50.609,39.899 50.446,39.509 50.151,39.215 L36.667,25.827 C36.656,25.816 36.645,25.806 36.634,25.795 L36.634,25.794 C36.633,25.794 36.633,25.794 36.633,25.793 L36.594,25.755 L36.554,25.716 C36.554,25.715 36.554,25.715 36.553,25.714 L35.585,24.753 L32.009,28.304 C31.110,29.196 29.929,29.643 28.748,29.643 C27.566,29.643 26.386,29.197 25.487,28.304 C24.616,27.439 24.136,26.288 24.136,25.065 C24.136,23.843 24.616,22.692 25.487,21.827 L32.607,14.756 C32.265,14.810 31.928,14.895 31.602,15.012 ZM49.812,13.216 C48.099,14.917 45.451,15.384 43.224,14.380 C42.244,13.939 41.155,13.706 40.073,13.706 C38.656,13.706 37.275,14.094 36.079,14.828 C35.576,15.136 35.107,15.504 34.686,15.922 L27.113,23.443 C26.676,23.876 26.436,24.453 26.436,25.066 C26.436,25.679 26.676,26.256 27.113,26.689 C28.014,27.585 29.481,27.585 30.383,26.689 L34.770,22.333 C34.771,22.332 34.772,22.331 34.772,22.331 C34.773,22.330 34.774,22.329 34.775,22.328 L36.683,20.433 C37.132,19.988 37.860,19.988 38.309,20.433 C38.758,20.880 38.758,21.602 38.309,22.048 L37.211,23.139 L38.180,24.100 C38.180,24.101 38.180,24.101 38.180,24.101 L38.216,24.137 C38.216,24.137 38.216,24.137 38.216,24.137 L38.257,24.177 C38.264,24.183 38.270,24.189 38.277,24.196 C38.672,24.578 42.220,27.891 45.180,26.689 C45.768,26.451 46.439,26.730 46.680,27.314 C46.920,27.897 46.639,28.564 46.051,28.803 C45.300,29.107 44.547,29.236 43.810,29.236 C43.650,29.236 43.491,29.228 43.333,29.217 L50.608,36.441 L51.492,35.563 C53.788,33.282 55.305,30.399 55.878,27.226 C56.072,26.157 56.596,25.173 57.394,24.381 L60.825,20.973 L51.413,11.627 L49.812,13.216 ZM56.885,3.195 L51.529,8.513 L63.867,20.765 L69.223,15.447 L56.885,3.195 ZM65.026,15.178 C65.661,15.178 66.176,15.689 66.176,16.319 C66.176,16.950 65.661,17.461 65.026,17.461 C64.391,17.461 63.876,16.950 63.876,16.319 C63.876,15.689 64.391,15.178 65.026,15.178 ZM6.381,17.448 C6.381,16.817 6.896,16.306 7.531,16.306 C8.166,16.306 8.681,16.817 8.681,17.448 C8.681,18.078 8.166,18.589 7.531,18.589 C6.896,18.589 6.381,18.078 6.381,17.448 Z" class="cls-1"/>
</svg>
