<svg xmlns="http://www.w3.org/2000/svg" xmlns:xlink="http://www.w3.org/1999/xlink" preserveAspectRatio="xMidYMid" width="13" height="18" viewBox="0 0 13 18">
  <defs>
    <style>
      .cls-1 {
        fill: #fff;
        fill-rule: evenodd;
      }
    </style>
  </defs>
  <path d="M12.999,15.639 C12.999,15.357 13.001,15.598 12.999,15.639 ZM6.500,17.999 C0.957,17.999 0.001,15.968 0.001,15.968 C0.001,15.732 0.000,15.596 0.000,15.523 C0.001,15.562 0.004,15.544 0.010,15.208 C0.083,11.084 0.640,9.896 4.615,9.140 C4.615,9.140 5.181,9.899 6.500,9.899 C7.818,9.899 8.384,9.140 8.384,9.140 C12.403,9.904 12.928,11.110 12.991,15.346 C12.996,15.616 12.998,15.663 12.999,15.639 C12.999,15.711 12.999,15.817 12.999,15.968 C12.999,15.968 12.042,17.999 6.500,17.999 ZM0.000,15.523 C-0.001,15.481 -0.000,15.375 0.000,15.523 ZM6.500,8.802 C4.599,8.802 3.058,6.832 3.058,4.401 C3.058,1.970 3.564,-0.000 6.500,-0.000 C9.435,-0.000 9.941,1.970 9.941,4.401 C9.941,6.832 8.400,8.802 6.500,8.802 Z" class="cls-1"/>
</svg>
