<svg xmlns="http://www.w3.org/2000/svg" xmlns:xlink="http://www.w3.org/1999/xlink" preserveAspectRatio="xMidYMid" width="68" height="68" viewBox="0 0 68 68">
  <defs>
    <style>
      .cls-1 {
        fill: #fff;
        fill-rule: evenodd;
      }
    </style>
  </defs>
  <path d="M15.867,19.266 L13.600,19.266 L13.600,16.999 L15.867,16.999 L15.867,19.266 ZM66.867,68.000 L49.867,68.000 L18.133,68.000 L1.133,68.000 C0.508,68.000 -0.000,67.492 -0.000,66.866 L-0.000,44.199 C-0.000,41.508 1.892,39.258 4.412,38.684 C3.774,37.649 3.400,36.435 3.400,35.133 L3.400,27.199 C3.400,26.573 3.908,26.066 4.533,26.066 L15.867,26.066 C16.492,26.066 17.000,26.573 17.000,27.199 L17.000,35.133 C17.000,36.435 16.626,37.649 15.988,38.685 C17.643,39.062 19.008,40.168 19.762,41.644 C21.390,39.496 23.651,37.853 26.289,36.977 C23.398,34.691 21.533,31.163 21.533,27.199 L21.533,16.898 C18.322,16.355 15.867,13.562 15.867,10.200 L15.867,7.933 C15.867,7.307 16.374,6.800 17.000,6.800 L38.533,6.800 C42.908,6.800 46.467,10.359 46.467,14.733 L46.467,16.003 C48.733,16.522 50.433,18.544 50.433,20.966 C50.433,23.388 48.733,25.411 46.467,25.929 L46.467,27.199 C46.467,31.163 44.602,34.691 41.711,36.976 C44.348,37.852 46.609,39.495 48.238,41.643 C48.992,40.167 50.357,39.061 52.012,38.684 C51.374,37.649 51.000,36.435 51.000,35.133 L51.000,27.199 C51.000,26.573 51.508,26.066 52.133,26.066 L63.467,26.066 C64.092,26.066 64.600,26.573 64.600,27.199 L64.600,35.133 C64.600,36.435 64.226,37.649 63.588,38.684 C66.108,39.258 68.000,41.508 68.000,44.199 L68.000,66.866 C68.000,67.492 67.492,68.000 66.867,68.000 ZM14.733,28.333 L5.667,28.333 L5.667,35.133 C5.667,36.617 6.394,37.925 7.499,38.755 C7.502,38.758 7.505,38.758 7.507,38.760 C7.693,38.898 7.888,39.015 8.087,39.122 C8.112,39.134 8.136,39.149 8.161,39.162 C8.355,39.260 8.554,39.342 8.757,39.411 C8.791,39.423 8.825,39.432 8.860,39.443 C9.732,39.714 10.666,39.714 11.537,39.443 C11.572,39.432 11.608,39.422 11.642,39.410 C11.844,39.342 12.044,39.259 12.238,39.161 C12.263,39.148 12.286,39.134 12.311,39.121 C12.511,39.014 12.706,38.896 12.892,38.759 C12.894,38.756 12.897,38.756 12.900,38.754 C13.872,38.025 14.533,36.922 14.680,35.655 L13.268,37.067 C13.056,37.280 12.767,37.400 12.467,37.400 L9.067,37.400 L9.067,35.133 L11.997,35.133 L14.733,32.397 L14.733,28.333 ZM8.081,55.024 L10.200,56.437 L12.319,55.024 L10.200,45.839 L8.081,55.024 ZM18.133,44.199 C18.133,42.325 16.608,40.799 14.733,40.799 L13.951,40.799 C13.245,41.269 12.448,41.610 11.592,41.789 L14.705,55.278 C14.810,55.738 14.621,56.215 14.229,56.476 L10.829,58.743 C10.639,58.870 10.419,58.933 10.200,58.933 C9.981,58.933 9.761,58.870 9.571,58.743 L6.171,56.476 C5.779,56.215 5.590,55.738 5.695,55.278 L8.808,41.789 C7.951,41.610 7.155,41.269 6.449,40.799 L5.667,40.799 C3.792,40.799 2.267,42.325 2.267,44.199 L2.267,65.733 L17.000,65.733 L17.000,49.866 C17.000,49.408 17.025,48.956 17.070,48.508 C17.077,48.432 17.093,48.357 17.102,48.281 C17.146,47.896 17.204,47.516 17.280,47.140 C17.289,47.098 17.301,47.054 17.310,47.011 C17.500,46.120 17.779,45.265 18.133,44.447 L18.133,44.199 ZM46.467,23.562 C47.466,23.125 48.167,22.126 48.167,20.966 C48.167,19.807 47.466,18.807 46.467,18.370 L46.467,23.562 ZM44.200,16.999 L44.200,14.733 C44.200,11.608 41.658,9.066 38.533,9.066 L18.133,9.066 L18.133,10.200 C18.133,12.700 20.166,14.733 22.667,14.733 L38.533,14.733 C39.159,14.733 39.667,15.241 39.667,15.866 L39.667,18.132 C39.667,20.869 41.617,23.159 44.200,23.685 L44.200,16.999 ZM44.175,27.693 L40.468,31.401 C40.256,31.614 39.967,31.732 39.667,31.732 L30.600,31.732 L30.600,29.466 L39.197,29.466 L42.960,25.704 C39.741,24.692 37.400,21.681 37.400,18.132 L37.400,16.999 L23.800,16.999 L23.800,27.199 C23.800,31.306 26.245,34.843 29.750,36.459 C30.081,36.611 30.416,36.745 30.758,36.861 C30.759,36.861 30.759,36.862 30.760,36.862 C32.866,37.573 35.136,37.573 37.241,36.862 C37.242,36.862 37.242,36.861 37.244,36.861 C37.585,36.747 37.920,36.611 38.251,36.459 C41.614,34.909 43.987,31.586 44.175,27.693 ZM48.733,49.866 C48.733,49.479 48.711,49.093 48.670,48.711 C48.662,48.633 48.647,48.557 48.638,48.479 C48.598,48.161 48.550,47.843 48.483,47.529 C48.473,47.477 48.459,47.427 48.448,47.376 C48.277,46.624 48.031,45.885 47.702,45.167 C47.696,45.156 47.699,45.143 47.694,45.131 C46.119,41.699 42.883,39.174 38.939,38.640 C37.424,39.298 35.754,39.666 34.000,39.666 C32.245,39.666 30.576,39.298 29.060,38.640 C25.116,39.174 21.880,41.699 20.305,45.131 C20.300,45.143 20.302,45.156 20.297,45.167 C19.969,45.886 19.723,46.624 19.551,47.376 C19.540,47.427 19.527,47.478 19.516,47.529 C19.449,47.843 19.400,48.161 19.361,48.479 C19.352,48.556 19.337,48.633 19.329,48.711 C19.289,49.093 19.267,49.479 19.267,49.866 L19.267,65.733 L48.733,65.733 L48.733,49.866 ZM62.333,28.333 L53.267,28.333 L53.267,35.133 C53.267,36.617 53.994,37.925 55.099,38.755 C55.102,38.758 55.105,38.758 55.107,38.760 C55.293,38.898 55.488,39.015 55.687,39.122 C55.712,39.134 55.736,39.149 55.761,39.162 C55.955,39.260 56.154,39.342 56.357,39.411 C56.391,39.423 56.425,39.432 56.460,39.443 C57.332,39.714 58.266,39.714 59.137,39.443 C59.172,39.432 59.208,39.422 59.242,39.410 C59.444,39.342 59.644,39.259 59.838,39.161 C59.863,39.148 59.886,39.134 59.911,39.121 C60.111,39.014 60.306,38.896 60.492,38.759 C60.494,38.756 60.497,38.756 60.500,38.754 C61.472,38.025 62.133,36.922 62.280,35.655 L60.868,37.067 C60.656,37.280 60.367,37.400 60.067,37.400 L56.667,37.400 L56.667,35.133 L59.597,35.133 L62.333,32.397 L62.333,28.333 ZM55.681,55.024 L57.800,56.437 L59.919,55.024 L57.800,45.839 L55.681,55.024 ZM65.733,44.199 C65.733,42.325 64.208,40.799 62.333,40.799 L61.551,40.799 C60.845,41.269 60.048,41.610 59.192,41.789 L62.305,55.278 C62.410,55.738 62.221,56.215 61.829,56.476 L58.429,58.743 C58.239,58.870 58.019,58.933 57.800,58.933 C57.581,58.933 57.361,58.870 57.172,58.743 L53.772,56.476 C53.380,56.215 53.191,55.738 53.296,55.278 L56.409,41.789 C55.553,41.610 54.756,41.269 54.050,40.799 L53.268,40.799 C51.393,40.799 49.868,42.325 49.868,44.199 L49.868,44.447 C50.222,45.265 50.501,46.120 50.690,47.011 C50.700,47.054 50.712,47.098 50.721,47.140 C50.797,47.515 50.855,47.895 50.899,48.281 C50.908,48.357 50.923,48.432 50.931,48.508 C50.975,48.956 51.000,49.408 51.000,49.866 L51.000,65.733 L65.733,65.733 L65.733,44.199 ZM32.651,45.795 L29.972,44.009 L31.229,42.123 L34.000,43.971 L36.771,42.123 L38.028,44.009 L35.349,45.795 L39.610,58.574 C39.764,59.036 39.604,59.546 39.214,59.838 L34.681,63.238 C34.479,63.389 34.240,63.465 34.001,63.465 C33.762,63.465 33.523,63.389 33.321,63.238 L28.788,59.838 C28.397,59.546 28.238,59.037 28.392,58.574 L32.651,45.795 ZM34.000,60.916 L37.199,58.516 L34.000,48.916 L30.801,58.516 L34.000,60.916 ZM61.200,19.266 L61.200,16.999 L63.467,16.999 L63.467,19.266 L61.200,19.266 ZM58.933,23.799 L56.667,23.799 L56.667,21.533 L58.933,21.533 L58.933,23.799 ZM56.667,16.999 L58.933,16.999 L58.933,19.266 L56.667,19.266 L56.667,16.999 ZM52.133,19.266 L52.133,16.999 L54.400,16.999 L54.400,19.266 L52.133,19.266 ZM67.104,11.308 L51.237,14.708 C51.159,14.725 51.078,14.733 51.000,14.733 C50.591,14.733 50.205,14.510 50.005,14.141 C49.765,13.699 49.844,13.153 50.199,12.799 L51.664,11.333 L48.733,11.333 C48.108,11.333 47.600,10.825 47.600,10.200 L47.600,1.133 C47.600,0.507 48.108,-0.001 48.733,-0.001 L66.867,-0.001 C67.492,-0.001 68.000,0.507 68.000,1.133 L68.000,10.200 C68.000,10.734 67.626,11.196 67.104,11.308 ZM65.733,2.266 L49.867,2.266 L49.867,9.066 L54.400,9.066 C54.858,9.066 55.271,9.343 55.447,9.766 C55.623,10.189 55.525,10.677 55.201,11.001 L54.516,11.687 L65.733,9.283 L65.733,2.266 ZM58.933,6.800 L56.667,6.800 L56.667,4.533 L58.933,4.533 L58.933,6.800 ZM63.467,6.800 L61.200,6.800 L61.200,4.533 L63.467,4.533 L63.467,6.800 ZM52.133,4.533 L54.400,4.533 L54.400,6.800 L52.133,6.800 L52.133,4.533 ZM9.067,21.533 L11.333,21.533 L11.333,23.799 L9.067,23.799 L9.067,21.533 ZM9.067,16.999 L11.333,16.999 L11.333,19.266 L9.067,19.266 L9.067,16.999 ZM4.533,16.999 L6.800,16.999 L6.800,19.266 L4.533,19.266 L4.533,16.999 Z" class="cls-1"/>
</svg>
