<svg xmlns="http://www.w3.org/2000/svg" xmlns:xlink="http://www.w3.org/1999/xlink" preserveAspectRatio="xMidYMid" width="20" height="20" viewBox="0 0 20 20">
  <defs>
    <style>
      .cls-1 {
        fill: #fff;
        fill-rule: evenodd;
      }
    </style>
  </defs>
  <path d="M10.000,-0.001 C4.477,-0.001 -0.000,4.477 -0.000,9.999 C-0.000,15.522 4.477,19.999 10.000,19.999 C15.524,19.999 20.000,15.522 20.000,9.999 C20.000,4.477 15.524,-0.001 10.000,-0.001 ZM12.727,13.860 C12.235,14.412 11.525,14.737 10.596,14.834 L10.596,16.249 L9.412,16.249 L9.412,14.842 C7.863,14.683 6.904,13.783 6.534,12.141 L8.365,11.664 C8.535,12.696 9.097,13.211 10.050,13.211 C10.496,13.211 10.825,13.101 11.035,12.880 C11.245,12.659 11.350,12.393 11.350,12.081 C11.350,11.757 11.245,11.512 11.035,11.346 C10.825,11.179 10.358,10.968 9.634,10.711 C8.983,10.485 8.474,10.263 8.108,10.041 C7.742,9.821 7.444,9.512 7.215,9.115 C6.987,8.718 6.872,8.254 6.872,7.726 C6.872,7.034 7.078,6.410 7.485,5.856 C7.893,5.303 8.535,4.965 9.412,4.842 L9.412,3.749 L10.596,3.749 L10.596,4.842 C11.919,5.000 12.776,5.748 13.165,7.088 L11.534,7.757 C11.216,6.839 10.725,6.380 10.059,6.380 C9.724,6.380 9.456,6.482 9.254,6.688 C9.051,6.893 8.950,7.142 8.950,7.434 C8.950,7.731 9.048,7.959 9.243,8.120 C9.437,8.278 9.856,8.475 10.496,8.710 C11.199,8.967 11.751,9.210 12.150,9.438 C12.550,9.666 12.869,9.982 13.108,10.383 C13.346,10.787 13.466,11.257 13.466,11.795 C13.466,12.622 13.219,13.310 12.727,13.860 Z" class="cls-1"/>
</svg>
