<svg xmlns="http://www.w3.org/2000/svg" xmlns:xlink="http://www.w3.org/1999/xlink" preserveAspectRatio="xMidYMid" width="10" height="10" viewBox="0 0 10 10">
  <defs>
    <style>
      .cls-1 {
        fill: #20a02b;
        fill-rule: evenodd;
      }
    </style>
  </defs>
  <path d="M8.263,0.952 C8.056,0.952 7.851,1.036 7.705,1.184 C7.557,1.330 7.472,1.534 7.472,1.743 C7.472,1.951 7.557,2.155 7.705,2.302 C7.851,2.449 8.056,2.534 8.263,2.534 C8.472,2.534 8.675,2.449 8.823,2.302 C8.970,2.155 9.054,1.951 9.054,1.743 C9.054,1.534 8.970,1.330 8.823,1.184 C8.676,1.036 8.472,0.952 8.263,0.952 L8.263,0.952 ZM4.999,7.053 C3.867,7.053 2.945,6.132 2.945,4.999 C2.945,3.866 3.867,2.945 4.999,2.945 C6.132,2.945 7.053,3.866 7.053,4.999 C7.053,6.132 6.132,7.053 4.999,7.053 L4.999,7.053 ZM4.999,1.867 C6.727,1.867 8.132,3.272 8.132,4.999 C8.132,6.727 6.727,8.132 4.999,8.132 C3.272,8.132 1.866,6.727 1.866,4.999 C1.866,3.272 3.272,1.867 4.999,1.867 L4.999,1.867 ZM10.000,7.723 C10.000,8.978 8.978,9.999 7.723,9.999 L2.275,9.999 C1.020,9.999 -0.001,8.978 -0.001,7.723 L-0.001,2.275 C-0.001,1.020 1.020,-0.001 2.275,-0.001 L7.723,-0.001 C8.978,-0.001 9.999,1.020 9.999,2.275 L9.999,7.723 L10.000,7.723 Z" class="cls-1"/>
</svg>
