<svg xmlns="http://www.w3.org/2000/svg" xmlns:xlink="http://www.w3.org/1999/xlink" preserveAspectRatio="xMidYMid" width="71" height="71" viewBox="0 0 71 71">
  <defs>
    <style>
      .cls-1 {
        fill: #fff;
        fill-rule: evenodd;
      }
    </style>
  </defs>
  <path d="M65.083,70.999 L5.917,70.999 C2.654,70.999 -0.000,68.345 -0.000,65.083 L-0.000,61.533 C-0.000,60.878 0.529,60.350 1.183,60.350 L3.550,60.350 L3.550,22.483 C3.550,19.220 6.204,16.566 9.467,16.566 L30.767,16.566 L30.767,1.182 C30.767,0.528 31.296,-0.001 31.950,-0.001 L57.983,-0.001 C58.298,-0.001 58.599,0.124 58.820,0.346 L67.103,8.629 C67.326,8.851 67.450,9.151 67.450,9.466 L67.450,48.516 L67.450,60.350 L69.817,60.350 C70.471,60.350 71.000,60.878 71.000,61.533 L71.000,65.083 C71.000,68.345 68.346,70.999 65.083,70.999 ZM30.767,48.516 L30.767,24.849 L11.833,24.849 L11.833,55.616 L59.167,55.616 L59.167,49.699 L31.950,49.699 C31.296,49.699 30.767,49.171 30.767,48.516 ZM59.167,4.040 L59.167,8.283 L63.410,8.283 L59.167,4.040 ZM65.083,10.649 L57.983,10.649 C57.329,10.649 56.800,10.121 56.800,9.466 L56.800,2.366 L33.133,2.366 L33.133,17.750 L33.133,23.666 L33.133,47.333 L60.350,47.333 L65.083,47.333 L65.083,10.649 ZM65.083,49.699 L61.533,49.699 L61.533,56.799 C61.533,57.454 61.004,57.983 60.350,57.983 L10.650,57.983 C9.996,57.983 9.467,57.454 9.467,56.799 L9.467,23.666 C9.467,23.012 9.996,22.483 10.650,22.483 L30.767,22.483 L30.767,18.933 L9.467,18.933 C7.509,18.933 5.917,20.525 5.917,22.483 L5.917,60.350 L26.033,60.350 C26.348,60.350 26.649,60.474 26.870,60.696 L27.706,61.533 L43.293,61.533 L44.130,60.696 C44.351,60.474 44.652,60.350 44.967,60.350 L65.083,60.350 L65.083,49.699 ZM68.633,62.716 L45.456,62.716 L44.620,63.553 C44.399,63.775 44.098,63.899 43.783,63.899 L27.217,63.899 C26.902,63.899 26.601,63.775 26.380,63.553 L25.543,62.716 L2.367,62.716 L2.367,65.083 C2.367,67.040 3.959,68.633 5.917,68.633 L65.083,68.633 C67.040,68.633 68.633,67.040 68.633,65.083 L68.633,62.716 ZM49.700,41.416 C49.397,41.416 49.094,41.300 48.863,41.069 L46.497,38.703 L48.170,37.030 L49.700,38.560 L53.597,34.663 L55.270,36.336 L50.537,41.069 C50.306,41.300 50.003,41.416 49.700,41.416 ZM49.700,29.583 C49.397,29.583 49.094,29.467 48.863,29.236 L46.497,26.869 L48.170,25.196 L49.700,26.726 L53.597,22.830 L55.270,24.503 L50.537,29.236 C50.306,29.467 50.003,29.583 49.700,29.583 ZM49.700,17.750 C49.397,17.750 49.094,17.633 48.863,17.403 L46.497,15.036 L48.170,13.363 L49.700,14.893 L53.597,10.996 L55.270,12.670 L50.537,17.403 C50.306,17.633 50.003,17.750 49.700,17.750 ZM43.783,42.600 L36.683,42.600 C36.029,42.600 35.500,42.070 35.500,41.416 L35.500,34.316 C35.500,33.662 36.029,33.133 36.683,33.133 L43.783,33.133 C44.438,33.133 44.967,33.662 44.967,34.316 L44.967,41.416 C44.967,42.070 44.438,42.600 43.783,42.600 ZM42.600,35.500 L37.867,35.500 L37.867,40.233 L42.600,40.233 L42.600,35.500 ZM43.783,30.766 L36.683,30.766 C36.029,30.766 35.500,30.237 35.500,29.583 L35.500,22.483 C35.500,21.829 36.029,21.299 36.683,21.299 L43.783,21.299 C44.438,21.299 44.967,21.829 44.967,22.483 L44.967,29.583 C44.967,30.237 44.438,30.766 43.783,30.766 ZM42.600,23.666 L37.867,23.666 L37.867,28.399 L42.600,28.399 L42.600,23.666 ZM43.783,18.933 L36.683,18.933 C36.029,18.933 35.500,18.403 35.500,17.750 L35.500,10.649 C35.500,9.995 36.029,9.466 36.683,9.466 L43.783,9.466 C44.438,9.466 44.967,9.995 44.967,10.649 L44.967,17.750 C44.967,18.403 44.438,18.933 43.783,18.933 ZM42.600,11.833 L37.867,11.833 L37.867,16.566 L42.600,16.566 L42.600,11.833 ZM18.933,47.333 L28.400,47.333 L28.400,49.699 L18.933,49.699 L18.933,47.333 ZM23.667,42.600 L28.400,42.600 L28.400,44.966 L23.667,44.966 L23.667,42.600 ZM20.117,37.866 L28.400,37.866 L28.400,40.233 L20.117,40.233 L20.117,37.866 ZM14.200,33.133 L28.400,33.133 L28.400,35.500 L14.200,35.500 L14.200,33.133 ZM22.483,28.399 L28.400,28.399 L28.400,30.766 L22.483,30.766 L22.483,28.399 ZM14.200,28.399 L20.117,28.399 L20.117,30.766 L14.200,30.766 L14.200,28.399 ZM17.750,40.233 L14.200,40.233 L14.200,37.866 L17.750,37.866 L17.750,40.233 ZM21.300,44.966 L14.200,44.966 L14.200,42.600 L21.300,42.600 L21.300,44.966 ZM16.567,49.699 L14.200,49.699 L14.200,47.333 L16.567,47.333 L16.567,49.699 ZM26.033,2.366 L28.400,2.366 L28.400,4.733 L26.033,4.733 L26.033,2.366 ZM21.300,2.366 L23.667,2.366 L23.667,4.733 L21.300,4.733 L21.300,2.366 ZM16.567,2.366 L18.933,2.366 L18.933,4.733 L16.567,4.733 L16.567,2.366 ZM11.833,11.833 L14.200,11.833 L14.200,14.200 L11.833,14.200 L11.833,11.833 ZM11.833,7.100 L14.200,7.100 L14.200,9.466 L11.833,9.466 L11.833,7.100 ZM11.833,2.366 L14.200,2.366 L14.200,4.733 L11.833,4.733 L11.833,2.366 Z" class="cls-1"/>
</svg>
