<svg xmlns="http://www.w3.org/2000/svg" xmlns:xlink="http://www.w3.org/1999/xlink" preserveAspectRatio="xMidYMid" width="13.5" height="7.78" viewBox="0 0 13.5 7.78">
  <defs>
    <style>
      .cls-1 {
        fill: #20a02b;
        fill-rule: evenodd;
      }
    </style>
  </defs>
  <path d="M13.427,7.027 C13.411,6.991 13.396,6.962 13.382,6.938 C13.147,6.513 12.700,5.991 12.039,5.371 L12.025,5.357 L12.018,5.351 L12.011,5.343 L12.004,5.343 C11.704,5.055 11.514,4.861 11.435,4.762 C11.289,4.573 11.257,4.382 11.336,4.188 C11.392,4.041 11.604,3.732 11.969,3.259 C12.161,3.009 12.313,2.808 12.426,2.657 C13.236,1.570 13.588,0.875 13.480,0.573 L13.438,0.502 C13.410,0.460 13.337,0.421 13.220,0.385 C13.103,0.350 12.953,0.344 12.770,0.368 L10.746,0.382 C10.714,0.370 10.667,0.371 10.606,0.385 C10.545,0.400 10.514,0.406 10.514,0.406 L10.479,0.425 L10.451,0.446 C10.428,0.460 10.402,0.484 10.374,0.520 C10.346,0.555 10.322,0.597 10.304,0.644 C10.083,1.216 9.833,1.747 9.552,2.239 C9.378,2.532 9.219,2.786 9.074,3.001 C8.928,3.216 8.807,3.374 8.708,3.476 C8.610,3.577 8.521,3.658 8.441,3.720 C8.362,3.781 8.301,3.807 8.259,3.798 C8.216,3.789 8.177,3.779 8.139,3.770 C8.073,3.727 8.021,3.669 7.981,3.596 C7.941,3.523 7.914,3.431 7.900,3.320 C7.886,3.209 7.878,3.113 7.875,3.033 C7.873,2.952 7.874,2.839 7.879,2.692 C7.884,2.546 7.886,2.447 7.886,2.395 C7.886,2.215 7.889,2.020 7.896,1.810 C7.904,1.600 7.909,1.433 7.914,1.310 C7.919,1.187 7.921,1.057 7.921,0.920 C7.921,0.783 7.913,0.676 7.896,0.598 C7.880,0.520 7.856,0.444 7.823,0.371 C7.790,0.298 7.742,0.241 7.679,0.201 C7.616,0.161 7.537,0.129 7.443,0.105 C7.195,0.049 6.879,0.018 6.494,0.013 C5.623,0.004 5.063,0.060 4.815,0.183 C4.716,0.235 4.627,0.306 4.548,0.396 C4.463,0.499 4.452,0.556 4.513,0.566 C4.794,0.608 4.993,0.710 5.110,0.870 L5.152,0.956 C5.185,1.017 5.218,1.126 5.250,1.282 C5.283,1.437 5.304,1.610 5.314,1.799 C5.337,2.144 5.337,2.439 5.314,2.685 C5.290,2.931 5.268,3.122 5.247,3.260 C5.226,3.396 5.194,3.508 5.152,3.592 C5.110,3.678 5.082,3.730 5.068,3.748 C5.054,3.767 5.042,3.779 5.033,3.784 C4.972,3.807 4.908,3.819 4.843,3.819 C4.777,3.819 4.698,3.786 4.604,3.720 C4.510,3.654 4.413,3.563 4.312,3.447 C4.211,3.332 4.098,3.169 3.971,2.962 C3.845,2.754 3.714,2.508 3.578,2.225 L3.465,2.019 C3.395,1.886 3.299,1.694 3.177,1.441 C3.055,1.188 2.948,0.943 2.854,0.707 C2.817,0.608 2.760,0.533 2.685,0.480 L2.650,0.459 C2.627,0.441 2.589,0.421 2.538,0.399 C2.486,0.378 2.432,0.362 2.376,0.353 L0.450,0.367 C0.254,0.367 0.120,0.412 0.050,0.502 L0.022,0.545 C0.008,0.568 0.000,0.606 0.000,0.658 C0.000,0.710 0.015,0.773 0.043,0.849 C0.324,1.515 0.630,2.158 0.960,2.777 C1.290,3.396 1.577,3.895 1.821,4.273 C2.064,4.650 2.313,5.008 2.566,5.343 C2.819,5.679 2.986,5.894 3.068,5.988 C3.150,6.083 3.215,6.153 3.261,6.200 L3.437,6.371 C3.550,6.484 3.715,6.620 3.933,6.778 C4.151,6.937 4.392,7.092 4.657,7.246 C4.921,7.400 5.229,7.525 5.581,7.622 C5.932,7.719 6.274,7.758 6.607,7.739 L7.415,7.739 C7.579,7.725 7.703,7.673 7.788,7.583 L7.816,7.547 C7.834,7.519 7.852,7.475 7.868,7.416 C7.885,7.358 7.893,7.292 7.893,7.221 C7.888,7.018 7.903,6.835 7.938,6.672 C7.973,6.509 8.013,6.386 8.058,6.304 C8.103,6.221 8.153,6.151 8.209,6.095 C8.265,6.038 8.305,6.003 8.329,5.992 C8.352,5.980 8.371,5.972 8.385,5.967 C8.497,5.929 8.630,5.966 8.782,6.077 C8.934,6.188 9.077,6.325 9.211,6.488 C9.344,6.651 9.505,6.834 9.692,7.037 C9.880,7.240 10.044,7.392 10.184,7.491 L10.325,7.576 C10.418,7.633 10.540,7.685 10.690,7.732 C10.840,7.779 10.971,7.791 11.084,7.767 L12.883,7.739 C13.061,7.739 13.199,7.709 13.297,7.651 C13.396,7.591 13.454,7.526 13.473,7.456 C13.492,7.384 13.493,7.305 13.477,7.214 C13.460,7.125 13.444,7.062 13.427,7.027 Z" class="cls-1"/>
</svg>
