<svg xmlns="http://www.w3.org/2000/svg" xmlns:xlink="http://www.w3.org/1999/xlink" preserveAspectRatio="xMidYMid" width="18" height="19" viewBox="0 0 18 19">
  <defs>
    <style>
      .cls-1 {
        fill: #fff;
        fill-rule: evenodd;
      }
    </style>
  </defs>
  <path d="M16.350,18.999 L1.650,18.999 C0.739,18.999 -0.000,18.226 -0.000,17.287 L-0.000,3.816 C-0.000,2.893 0.723,2.142 1.602,2.114 L1.602,4.413 C1.602,5.452 2.419,6.289 3.425,6.289 L4.575,6.289 C5.581,6.289 6.409,5.452 6.409,4.413 L6.409,2.107 L11.591,2.107 L11.591,4.413 C11.591,5.452 12.419,6.289 13.425,6.289 L14.575,6.289 C15.581,6.289 16.398,5.452 16.398,4.413 L16.398,2.114 C17.277,2.142 18.000,2.893 18.000,3.816 L18.000,17.287 C18.000,18.226 17.260,18.999 16.350,18.999 ZM15.864,9.490 C15.864,9.083 15.544,8.753 15.150,8.753 L2.818,8.753 C2.424,8.753 2.105,9.083 2.105,9.490 L2.105,16.447 C2.105,16.854 2.424,17.184 2.818,17.184 L15.150,17.184 C15.544,17.184 15.864,16.854 15.864,16.447 L15.864,9.490 ZM13.373,16.178 L11.915,16.178 C11.684,16.178 11.497,15.985 11.497,15.748 L11.497,14.243 C11.497,14.005 11.684,13.812 11.915,13.812 L13.373,13.812 C13.604,13.812 13.791,14.005 13.791,14.243 L13.791,15.748 C13.791,15.985 13.604,16.178 13.373,16.178 ZM13.373,12.418 L11.915,12.418 C11.684,12.418 11.497,12.225 11.497,11.986 L11.497,10.481 C11.497,10.243 11.684,10.050 11.915,10.050 L13.373,10.050 C13.604,10.050 13.791,10.243 13.791,10.481 L13.791,11.986 C13.791,12.225 13.604,12.418 13.373,12.418 ZM9.729,16.178 L8.271,16.178 C8.040,16.178 7.853,15.985 7.853,15.748 L7.853,14.243 C7.853,14.005 8.040,13.812 8.271,13.812 L9.729,13.812 C9.960,13.812 10.147,14.005 10.147,14.243 L10.147,15.748 C10.147,15.985 9.960,16.178 9.729,16.178 ZM9.729,12.418 L8.271,12.418 C8.040,12.418 7.853,12.225 7.853,11.986 L7.853,10.481 C7.853,10.243 8.040,10.050 8.271,10.050 L9.729,10.050 C9.960,10.050 10.147,10.243 10.147,10.481 L10.147,11.986 C10.147,12.225 9.960,12.418 9.729,12.418 ZM6.085,16.178 L4.627,16.178 C4.396,16.178 4.209,15.985 4.209,15.748 L4.209,14.243 C4.209,14.005 4.396,13.812 4.627,13.812 L6.085,13.812 C6.316,13.812 6.503,14.005 6.503,14.243 L6.503,15.748 C6.503,15.985 6.316,16.178 6.085,16.178 ZM6.085,12.418 L4.627,12.418 C4.396,12.418 4.209,12.225 4.209,11.986 L4.209,10.481 C4.209,10.243 4.396,10.050 4.627,10.050 L6.085,10.050 C6.316,10.050 6.503,10.243 6.503,10.481 L6.503,11.986 C6.503,12.225 6.316,12.418 6.085,12.418 ZM14.548,5.057 L13.410,5.057 C13.065,5.057 12.785,4.769 12.785,4.412 L12.785,0.644 C12.785,0.288 13.065,-0.001 13.410,-0.001 L14.548,-0.001 C14.893,-0.001 15.173,0.288 15.173,0.644 L15.173,4.412 C15.173,4.769 14.893,5.057 14.548,5.057 ZM4.558,5.057 L3.421,5.057 C3.076,5.057 2.796,4.769 2.796,4.412 L2.796,0.644 C2.796,0.288 3.076,-0.001 3.421,-0.001 L4.558,-0.001 C4.903,-0.001 5.183,0.288 5.183,0.644 L5.183,4.412 C5.183,4.769 4.903,5.057 4.558,5.057 Z" class="cls-1"/>
</svg>
