<svg xmlns="http://www.w3.org/2000/svg" width="10" height="10" viewBox="0 0 10 10">
  <defs>
    <style>
      .cls-1 {
        fill: #20a02b;
        fill-rule: evenodd;
      }
    </style>
  </defs>
  <path id="instagram.svg" class="cls-1" d="M1447.26,3034.95a0.85,0.85,0,0,0-.56.23,0.8,0.8,0,0,0,0,1.12,0.8,0.8,0,0,0,.56.23,0.77,0.77,0,0,0,.56-0.23,0.8,0.8,0,0,0,0-1.12,0.812,0.812,0,0,0-.56-0.23h0Zm-3.26,6.1a2.05,2.05,0,1,1,2.05-2.05,2.053,2.053,0,0,1-2.05,2.05h0Zm0-5.18a3.13,3.13,0,1,1-3.13,3.13,3.128,3.128,0,0,1,3.13-3.13h0Zm5,5.85a2.279,2.279,0,0,1-2.28,2.28h-5.44a2.279,2.279,0,0,1-2.28-2.28v-5.44a2.279,2.279,0,0,1,2.28-2.28h5.44a2.279,2.279,0,0,1,2.28,2.28v5.44h0Z" transform="translate(-1439 -3034)"/>
</svg>
