<svg xmlns="http://www.w3.org/2000/svg" xmlns:xlink="http://www.w3.org/1999/xlink" preserveAspectRatio="xMidYMid" width="57" height="57" viewBox="0 0 57 57">
  <defs>
    <style>
      .cls-1 {
        fill: #20c335;
        fill-rule: evenodd;
      }
    </style>
  </defs>
  <path d="M48.857,56.999 C44.291,56.999 40.714,54.764 40.714,51.910 L40.714,6.106 C40.714,3.252 44.291,1.016 48.857,1.016 C53.423,1.016 57.000,3.252 57.000,6.106 L57.000,51.910 C57.000,54.764 53.423,56.999 48.857,56.999 ZM48.857,3.052 C45.258,3.052 42.750,4.662 42.750,6.106 C42.750,7.551 45.258,9.159 48.857,9.159 C52.456,9.159 54.964,7.551 54.964,6.106 C54.964,4.662 52.456,3.052 48.857,3.052 ZM54.964,9.498 C53.483,10.542 51.317,11.195 48.857,11.195 C46.397,11.195 44.231,10.542 42.750,9.498 L42.750,11.195 C42.750,12.639 45.258,14.249 48.857,14.249 C52.456,14.249 54.964,12.639 54.964,11.195 L54.964,9.498 ZM54.964,14.588 C53.483,15.633 51.317,16.285 48.857,16.285 C46.397,16.285 44.231,15.633 42.750,14.588 L42.750,16.285 C42.750,17.729 45.258,19.339 48.857,19.339 C52.456,19.339 54.964,17.729 54.964,16.285 L54.964,14.588 ZM54.964,19.677 C53.483,20.722 51.317,21.374 48.857,21.374 C46.397,21.374 44.231,20.722 42.750,19.677 L42.750,21.374 C42.750,22.818 45.258,24.428 48.857,24.428 C52.456,24.428 54.964,22.818 54.964,21.374 L54.964,19.677 ZM54.964,24.767 C53.483,25.811 51.317,26.463 48.857,26.463 C46.397,26.463 44.231,25.811 42.750,24.767 L42.750,26.463 C42.750,27.908 45.258,29.517 48.857,29.517 C52.456,29.517 54.964,27.908 54.964,26.463 L54.964,24.767 ZM54.964,29.856 C53.483,30.900 51.317,31.553 48.857,31.553 C46.397,31.553 44.231,30.900 42.750,29.856 L42.750,31.553 C42.750,32.997 45.258,34.606 48.857,34.606 C52.456,34.606 54.964,32.997 54.964,31.553 L54.964,29.856 ZM54.964,34.945 C53.483,35.990 51.317,36.642 48.857,36.642 C46.397,36.642 44.231,35.990 42.750,34.945 L42.750,36.642 C42.750,38.086 45.258,39.696 48.857,39.696 C52.456,39.696 54.964,38.086 54.964,36.642 L54.964,34.945 ZM54.964,40.035 C53.483,41.079 51.317,41.731 48.857,41.731 C46.397,41.731 44.231,41.079 42.750,40.035 L42.750,41.731 C42.750,43.176 45.258,44.785 48.857,44.785 C52.456,44.785 54.964,43.176 54.964,41.731 L54.964,40.035 ZM54.964,45.124 C53.483,46.168 51.317,46.821 48.857,46.821 C46.397,46.821 44.231,46.168 42.750,45.124 L42.750,46.821 C42.750,48.265 45.258,49.874 48.857,49.874 C52.456,49.874 54.964,48.265 54.964,46.821 L54.964,45.124 ZM54.964,50.214 C53.483,51.258 51.317,51.910 48.857,51.910 C46.397,51.910 44.231,51.258 42.750,50.214 L42.750,51.910 C42.750,53.355 45.258,54.963 48.857,54.963 C52.456,54.963 54.964,53.355 54.964,51.910 L54.964,50.214 ZM31.737,13.230 C31.439,13.230 31.192,13.218 30.984,13.204 L29.518,14.670 L29.518,16.327 C33.585,16.631 36.643,18.737 36.643,21.374 L36.643,51.910 C36.643,54.764 33.066,56.999 28.500,56.999 C23.934,56.999 20.357,54.764 20.357,51.910 L20.357,21.374 C20.357,19.013 22.808,17.080 26.238,16.480 L22.691,12.933 C22.500,12.742 22.393,12.484 22.393,12.214 L22.393,10.169 C22.277,10.173 22.165,10.178 22.035,10.178 C20.445,10.178 17.899,9.881 16.223,8.205 C13.684,5.667 14.309,1.139 14.336,0.948 C14.401,0.501 14.751,0.151 15.198,0.086 C15.388,0.057 19.918,-0.566 22.455,1.973 C24.267,3.784 24.465,6.604 24.421,8.142 L24.429,8.142 L24.429,11.792 L27.482,14.845 L27.482,14.249 C27.482,13.979 27.589,13.720 27.780,13.529 L29.544,11.766 C29.463,10.575 29.470,7.645 31.281,5.833 C33.545,3.568 37.568,4.121 37.739,4.149 C38.185,4.213 38.535,4.563 38.600,5.010 C38.625,5.180 39.180,9.203 36.916,11.469 C35.417,12.965 33.148,13.230 31.737,13.230 ZM21.017,3.412 C19.726,2.120 17.495,2.011 16.292,2.041 C16.252,3.234 16.370,5.474 17.663,6.766 C18.954,8.058 21.189,8.171 22.388,8.137 C22.427,6.943 22.309,4.703 21.017,3.412 ZM22.393,51.910 C22.393,53.355 24.901,54.963 28.500,54.963 C32.099,54.963 34.607,53.355 34.607,51.910 L34.607,50.214 C33.126,51.258 30.960,51.910 28.500,51.910 C26.040,51.910 23.874,51.258 22.393,50.214 L22.393,51.910 ZM22.393,46.821 C22.393,48.265 24.901,49.874 28.500,49.874 C32.099,49.874 34.607,48.265 34.607,46.821 L34.607,45.124 C33.126,46.168 30.960,46.821 28.500,46.821 C26.040,46.821 23.874,46.168 22.393,45.124 L22.393,46.821 ZM22.393,41.731 C22.393,43.176 24.901,44.785 28.500,44.785 C32.099,44.785 34.607,43.176 34.607,41.731 L34.607,40.035 C33.126,41.079 30.960,41.731 28.500,41.731 C26.040,41.731 23.874,41.079 22.393,40.035 L22.393,41.731 ZM22.393,36.642 C22.393,38.086 24.901,39.696 28.500,39.696 C32.099,39.696 34.607,38.086 34.607,36.642 L34.607,34.945 C33.126,35.990 30.960,36.642 28.500,36.642 C26.040,36.642 23.874,35.990 22.393,34.945 L22.393,36.642 ZM22.393,31.553 C22.393,32.997 24.901,34.606 28.500,34.606 C32.099,34.606 34.607,32.997 34.607,31.553 L34.607,29.856 C33.126,30.900 30.960,31.553 28.500,31.553 C26.040,31.553 23.874,30.900 22.393,29.856 L22.393,31.553 ZM22.393,26.463 C22.393,27.908 24.901,29.517 28.500,29.517 C32.099,29.517 34.607,27.908 34.607,26.463 L34.607,24.767 C33.126,25.811 30.960,26.463 28.500,26.463 C26.040,26.463 23.874,25.811 22.393,24.767 L22.393,26.463 ZM27.482,21.374 L27.482,18.370 C24.439,18.637 22.393,20.070 22.393,21.374 C22.393,22.818 24.901,24.428 28.500,24.428 C32.099,24.428 34.607,22.818 34.607,21.374 C34.607,20.070 32.561,18.637 29.518,18.370 L29.518,21.374 L27.482,21.374 ZM32.721,7.273 C31.664,8.329 31.532,10.146 31.556,11.194 C32.606,11.213 34.418,11.087 35.476,10.028 C36.532,8.973 36.664,7.156 36.642,6.107 C35.584,6.096 33.778,6.216 32.721,7.273 ZM16.286,31.553 L16.286,51.910 C16.286,54.764 12.709,56.999 8.143,56.999 C3.577,56.999 -0.000,54.764 -0.000,51.910 L-0.000,31.553 C-0.000,28.698 3.577,26.463 8.143,26.463 C12.709,26.463 16.286,28.698 16.286,31.553 ZM8.143,28.499 C4.544,28.499 2.036,30.108 2.036,31.553 C2.036,32.997 4.544,34.606 8.143,34.606 C11.742,34.606 14.250,32.997 14.250,31.553 C14.250,30.108 11.742,28.499 8.143,28.499 ZM14.250,34.945 C12.769,35.990 10.603,36.642 8.143,36.642 C5.683,36.642 3.517,35.990 2.036,34.945 L2.036,36.642 C2.036,38.086 4.544,39.696 8.143,39.696 C11.742,39.696 14.250,38.086 14.250,36.642 L14.250,34.945 ZM14.250,40.035 C12.769,41.079 10.603,41.731 8.143,41.731 C5.683,41.731 3.517,41.079 2.036,40.035 L2.036,41.731 C2.036,43.176 4.544,44.785 8.143,44.785 C11.742,44.785 14.250,43.176 14.250,41.731 L14.250,40.035 ZM14.250,45.124 C12.769,46.168 10.603,46.821 8.143,46.821 C5.683,46.821 3.517,46.168 2.036,45.124 L2.036,46.821 C2.036,48.265 4.544,49.874 8.143,49.874 C11.742,49.874 14.250,48.265 14.250,46.821 L14.250,45.124 ZM14.250,50.214 C12.769,51.258 10.603,51.910 8.143,51.910 C5.683,51.910 3.517,51.258 2.036,50.214 L2.036,51.910 C2.036,53.355 4.544,54.963 8.143,54.963 C11.742,54.963 14.250,53.355 14.250,51.910 L14.250,50.214 Z" class="cls-1"/>
</svg>
