<svg xmlns="http://www.w3.org/2000/svg" xmlns:xlink="http://www.w3.org/1999/xlink" preserveAspectRatio="xMidYMid" width="62" height="62" viewBox="0 0 62 62">
  <defs>
    <style>
      .cls-1 {
        fill: #fff;
        fill-rule: evenodd;
      }
    </style>
  </defs>
  <path d="M60.967,18.695 L58.900,18.695 L58.900,21.811 L56.833,21.811 L56.833,18.695 L54.767,18.695 C54.196,18.695 53.733,18.230 53.733,17.657 L53.733,1.038 C53.733,0.465 54.196,-0.001 54.767,-0.001 L60.967,-0.001 C61.537,-0.001 62.000,0.465 62.000,1.038 L62.000,17.657 C62.000,18.230 61.537,18.695 60.967,18.695 ZM59.933,2.077 L55.800,2.077 L55.800,16.618 L59.933,16.618 L59.933,2.077 ZM48.567,34.275 L46.500,34.275 L46.500,40.507 L44.433,40.507 L44.433,34.275 L42.367,34.275 C41.796,34.275 41.333,33.810 41.333,33.237 L41.333,11.425 C41.333,10.852 41.796,10.386 42.367,10.386 L44.433,10.386 L44.433,5.193 L46.500,5.193 L46.500,10.386 L48.567,10.386 C49.137,10.386 49.600,10.852 49.600,11.425 L49.600,33.237 C49.600,33.810 49.137,34.275 48.567,34.275 ZM47.533,12.463 L43.400,12.463 L43.400,32.198 L47.533,32.198 L47.533,12.463 ZM36.167,32.198 L34.100,32.198 L34.100,35.314 L32.033,35.314 L32.033,32.198 L29.967,32.198 C29.396,32.198 28.933,31.733 28.933,31.159 L28.933,16.618 C28.933,16.045 29.396,15.579 29.967,15.579 L32.033,15.579 L32.033,13.502 L34.100,13.502 L34.100,15.579 L36.167,15.579 C36.737,15.579 37.200,16.045 37.200,16.618 L37.200,31.159 C37.200,31.733 36.737,32.198 36.167,32.198 ZM35.133,17.657 L31.000,17.657 L31.000,30.121 L35.133,30.121 L35.133,17.657 ZM53.909,42.043 C54.896,41.873 55.896,42.143 56.662,42.789 C57.427,43.435 57.866,44.383 57.866,45.387 C57.866,46.589 57.223,47.713 56.189,48.319 L33.648,61.536 C33.122,61.845 32.535,62.000 31.947,62.000 C31.432,62.000 30.915,61.880 30.437,61.640 L19.389,56.087 L16.533,56.087 L16.533,57.126 C16.533,57.699 16.070,58.165 15.500,58.165 L11.367,58.165 L1.033,58.165 C0.463,58.165 -0.000,57.699 -0.000,57.126 L-0.000,40.507 C-0.000,39.934 0.463,39.469 1.033,39.469 L11.367,39.469 L15.500,39.469 L26.867,39.469 C27.140,39.469 27.404,39.577 27.597,39.773 L33.418,45.624 L53.909,42.043 ZM10.333,41.546 L2.067,41.546 L2.067,56.087 L10.333,56.087 L10.333,41.546 ZM14.467,41.546 L12.400,41.546 L12.400,56.087 L14.467,56.087 L14.467,41.546 ZM26.439,41.546 L16.533,41.546 L16.533,54.010 L19.633,54.010 C19.793,54.010 19.953,54.047 20.095,54.120 L31.361,59.782 C31.757,59.980 32.224,59.965 32.608,59.741 L55.150,46.525 C55.551,46.288 55.800,45.852 55.800,45.386 C55.800,44.997 55.629,44.629 55.333,44.378 C55.036,44.126 54.646,44.020 54.264,44.088 L35.205,47.420 L36.041,48.260 C36.789,49.011 37.200,50.010 37.200,51.072 C37.200,53.265 35.426,55.048 33.243,55.048 C32.187,55.048 31.194,54.635 30.446,53.883 L25.103,48.512 L26.564,47.044 L31.907,52.414 C32.265,52.774 32.739,52.971 33.243,52.971 C34.286,52.971 35.133,52.119 35.133,51.072 C35.133,50.565 34.937,50.088 34.579,49.729 L26.439,41.546 ZM23.767,25.966 L17.567,25.966 C16.996,25.966 16.533,25.501 16.533,24.927 L16.533,11.425 C16.533,10.852 16.996,10.386 17.567,10.386 L19.633,10.386 L19.633,7.270 L21.700,7.270 L21.700,10.386 L23.767,10.386 C24.337,10.386 24.800,10.852 24.800,11.425 L24.800,24.927 C24.800,25.501 24.337,25.966 23.767,25.966 ZM22.733,12.463 L21.700,12.463 L19.633,12.463 L18.600,12.463 L18.600,23.889 L22.733,23.889 L22.733,12.463 ZM11.367,30.121 L9.300,30.121 L9.300,34.275 L7.233,34.275 L7.233,30.121 L5.167,30.121 C4.596,30.121 4.133,29.656 4.133,29.082 L4.133,10.386 C4.133,9.813 4.596,9.348 5.167,9.348 L7.233,9.348 L7.233,-0.001 L9.300,-0.001 L9.300,9.348 L11.367,9.348 C11.937,9.348 12.400,9.813 12.400,10.386 L12.400,29.082 C12.400,29.656 11.937,30.121 11.367,30.121 ZM10.333,11.425 L6.200,11.425 L6.200,28.043 L10.333,28.043 L10.333,11.425 Z" class="cls-1"/>
</svg>
