<svg xmlns="http://www.w3.org/2000/svg" width="20" height="20" viewBox="0 0 20 20">
  <defs>
    <style>
      .cls-1 {
        fill: #fff;
        fill-rule: evenodd;
      }
    </style>
  </defs>
  <path id="icon-search.svg" class="cls-1" d="M542.556,741.38l-4.123-4.122a8.23,8.23,0,0,0,1.491-4.8,8.331,8.331,0,0,0-.667-3.288,8.293,8.293,0,0,0-4.508-4.508,8.435,8.435,0,0,0-6.575,0,8.293,8.293,0,0,0-4.508,4.508,8.435,8.435,0,0,0,0,6.575,8.278,8.278,0,0,0,4.508,4.507,8.446,8.446,0,0,0,8.084-.823l4.122,4.111a1.43,1.43,0,0,0,1.082.456A1.538,1.538,0,0,0,542.556,741.38Zm-7.29-5.114a5.368,5.368,0,1,1,1.581-3.8A5.186,5.186,0,0,1,535.266,736.266Z" transform="translate(-523 -724)"/>
</svg>
