<svg xmlns="http://www.w3.org/2000/svg" width="67" height="62" viewBox="0 0 67 62"><path fill="#1eaf26" d="M41 11.58a7.37 7.37 0 0 0-5.55-2.3c-3.98 0-7.54 2.72-7.93 6.06a5.29 5.29 0 0 0 1.33 4.18 7.31 7.31 0 0 0 5.5 2.25c4.1 0 7.6-2.66 8-6.05.17-1.5-.3-2.98-1.34-4.14zm-1.85 3.76c-.2 1.75-2.4 3.22-4.8 3.22a4.18 4.18 0 0 1-3.1-1.18 2.06 2.06 0 0 1-.54-1.67c.2-1.7 2.42-3.21 4.74-3.21 1.3 0 2.48.45 3.15 1.21.3.34.64.89.55 1.63zm.34 30.5c-.4-.28-1.35-.9-.59-5.28l.22-1 1.32-6.17v-.01c.56-2.8.12-5.26-1.28-7.1a7.6 7.6 0 0 0-5.59-2.85c-3.48-.28-7.12 1.8-8.23 3.84-.52.9-.27 1.63-.08 2 .24.44.6.69.85.87.4.28 1.32.94.44 5.3l-1.47 7.51v.02c-.48 2.81 0 5.28 1.46 7.05 2.36 2.86 5.95 2.73 6.09 2.73 3.34 0 6.69-2.08 7.7-4.07.5-.91.23-1.64.03-2-.25-.43-.61-.67-.87-.85zm-2.2-13.1l-1.32 6.14-.23 1.1c-.82 4.7 0 6.75 1.18 7.9-.32.28-.76.59-1.3.87a6.62 6.62 0 0 1-3.24.78 4.4 4.4 0 0 1-3.33-1.51c-.85-1.06-1.12-2.62-.8-4.5.17-.95 1.4-7.18 1.45-7.43v-.01c.94-4.67.17-6.74-.97-7.92.33-.27.78-.57 1.32-.83a6.62 6.62 0 0 1 3.26-.7c1.45.12 2.59.67 3.29 1.6.82 1.08 1.06 2.64.69 4.51zm22.85 16.42A29 29 0 0 0 67 30.61c0-8.2-3.5-15.91-9.87-21.7A34.96 34.96 0 0 0 33.5 0 34.96 34.96 0 0 0 9.87 8.91C3.5 14.7 0 22.41 0 30.61s3.5 15.9 9.87 21.7a34.96 34.96 0 0 0 23.63 8.9c5.58 0 11.07-1.27 15.95-3.68l11.67 4.37a1.62 1.62 0 0 0 1.66-.33 1.6 1.6 0 0 0 .45-1.62zm-10.23 5.11c-.42-.16-.9-.13-1.3.09A32.76 32.76 0 0 1 33.5 58C16.8 58 3.22 45.71 3.22 30.6 3.22 15.5 16.8 3.22 33.5 3.22c16.7 0 30.28 12.3 30.28 27.4 0 6.28-2.29 12.2-6.62 17.1-.37.4-.5.98-.35 1.5l2.45 8.56z"/></svg>