<svg xmlns="http://www.w3.org/2000/svg" width="21" height="21" viewBox="0 0 21 21">
  <defs>
    <style>
      .cls-1 {
        fill: #4cb059;
        fill-rule: evenodd;
      }
    </style>
  </defs>
  <path id="plus.svg" class="cls-1" d="M506.787,1234H490.212a2.211,2.211,0,0,0-2.212,2.21v16.58a2.214,2.214,0,0,0,2.212,2.21h16.575a2.218,2.218,0,0,0,2.213-2.21v-16.58A2.215,2.215,0,0,0,506.787,1234Zm1.162,18.79a1.17,1.17,0,0,1-1.162,1.16H490.212a1.17,1.17,0,0,1-1.162-1.16v-16.58a1.163,1.163,0,0,1,1.162-1.16h16.575a1.163,1.163,0,0,1,1.162,1.16v16.58h0Zm-5.484-8.82h-3.442v-3.44a0.528,0.528,0,0,0-1.055,0v3.44h-3.443a0.53,0.53,0,0,0,0,1.06h3.443v3.44a0.528,0.528,0,1,0,1.055,0v-3.44h3.442A0.53,0.53,0,0,0,502.465,1243.97Z" transform="translate(-488 -1234)"/>
</svg>
