<svg xmlns="http://www.w3.org/2000/svg" width="21" height="21" viewBox="0 0 21 21">
  <defs>
    <style>
      .cls-1 {
        fill: #fff;
        fill-rule: evenodd;
      }
    </style>
  </defs>
  <path id="minus.svg" class="cls-1" d="M507.787,1033H491.212a2.211,2.211,0,0,0-2.212,2.21v16.58a2.214,2.214,0,0,0,2.212,2.21h16.575a2.218,2.218,0,0,0,2.213-2.21v-16.58A2.215,2.215,0,0,0,507.787,1033Zm1.162,18.79a1.17,1.17,0,0,1-1.162,1.16H491.212a1.17,1.17,0,0,1-1.162-1.16v-16.58a1.163,1.163,0,0,1,1.162-1.16h16.575a1.163,1.163,0,0,1,1.162,1.16v16.58h0Zm-8.981-8.82h-4.443a0.53,0.53,0,0,0,0,1.06h4.443m0.055,0h3.442a0.53,0.53,0,0,0,0-1.06h-3.442" transform="translate(-489 -1033)"/>
</svg>
