<svg xmlns="http://www.w3.org/2000/svg" width="14" height="19" viewBox="0 0 14 19"><path fill="#fff" d="M7 7.5c1.98 0 3.6-1.68 3.6-3.75A3.68 3.68 0 0 0 7 0a3.68 3.68 0 0 0-3.6 3.75A3.68 3.68 0 0 0 7 7.5zm4.82 1.82c-.47-.13-1.9-.33-1.9-.33a.31.31 0 0 0-.4.2l-2.15 6.17a.38.38 0 0 1-.73 0L4.48 9.2a.32.32 0 0 0-.3-.22c-.03 0-1.5.22-2 .34C.86 9.66 0 11.04 0 12.47v5.14C0 18.38.6 19 1.34 19h11.32c.74 0 1.34-.62 1.34-1.4v-5.15c0-1.43-.88-2.7-2.18-3.13zm-4-.45a.45.45 0 0 0-.34-.15h-.95a.45.45 0 0 0-.34.15.48.48 0 0 0-.06.54l.5.8-.23 2.09.47 1.3c.04.13.22.13.26 0l.47-1.3-.24-2.1.51-.8a.48.48 0 0 0-.06-.53z"/></svg>