<svg xmlns="http://www.w3.org/2000/svg" xmlns:xlink="http://www.w3.org/1999/xlink" preserveAspectRatio="xMidYMid" width="13" height="9" viewBox="0 0 13 9">
  <defs>
    <style>
      .cls-1 {
        fill: #20a02b;
        fill-rule: evenodd;
      }
    </style>
  </defs>
  <path d="M12.493,0.772 C12.024,0.223 11.157,-0.001 9.503,-0.001 L3.497,-0.001 C1.804,-0.001 0.923,0.237 0.456,0.822 C-0.000,1.392 -0.000,2.231 -0.000,3.392 L-0.000,5.606 C-0.000,7.857 0.541,8.999 3.497,8.999 L9.503,8.999 C10.938,8.999 11.733,8.801 12.247,8.317 C12.775,7.821 13.000,7.010 13.000,5.606 L13.000,3.392 C13.000,2.167 12.964,1.323 12.493,0.772 ZM8.346,4.805 L5.618,6.207 C5.558,6.238 5.491,6.254 5.424,6.254 C5.349,6.254 5.274,6.234 5.207,6.194 C5.081,6.120 5.005,5.986 5.005,5.841 L5.005,3.046 C5.005,2.902 5.081,2.768 5.206,2.693 C5.332,2.619 5.487,2.614 5.617,2.680 L8.345,4.073 C8.484,4.144 8.571,4.285 8.571,4.439 C8.571,4.593 8.484,4.734 8.346,4.805 Z" class="cls-1"/>
</svg>
