<svg xmlns="http://www.w3.org/2000/svg" xmlns:xlink="http://www.w3.org/1999/xlink" preserveAspectRatio="xMidYMid" width="39" height="38" viewBox="0 0 39 38">
  <defs>
    <style>
      .cls-1 {
        fill: #1eaf26;
        fill-rule: evenodd;
      }
    </style>
  </defs>
  <path d="M38.369,23.407 C37.589,22.642 35.860,22.237 33.229,22.202 C31.448,22.183 29.305,22.339 27.050,22.653 C26.041,22.073 25.000,21.442 24.184,20.682 C21.987,18.640 20.153,15.804 19.010,12.686 C19.084,12.395 19.148,12.139 19.207,11.877 C19.207,11.877 20.444,4.878 20.117,2.512 C20.072,2.188 20.044,2.093 19.956,1.841 L19.849,1.566 C19.512,0.793 18.852,-0.026 17.817,0.019 L17.210,-0.001 L17.194,-0.001 C16.040,-0.001 15.099,0.587 14.853,1.465 C14.102,4.220 14.876,8.341 16.280,13.678 L15.920,14.548 C14.916,16.986 13.657,19.442 12.546,21.609 L12.401,21.891 C11.233,24.168 10.172,26.102 9.211,27.739 L8.218,28.262 C8.146,28.300 6.445,29.196 6.046,29.436 C2.661,31.448 0.418,33.732 0.046,35.545 C-0.072,36.124 0.016,36.864 0.618,37.207 L1.578,37.688 C1.995,37.896 2.434,38.001 2.884,38.001 C5.294,38.001 8.093,35.011 11.949,28.311 C16.400,26.868 21.468,25.669 25.910,25.007 C29.295,26.905 33.458,28.223 36.086,28.223 C36.552,28.223 36.955,28.179 37.282,28.093 C37.786,27.960 38.210,27.674 38.469,27.285 C38.979,26.521 39.082,25.469 38.944,24.392 C38.903,24.072 38.646,23.677 38.369,23.407 ZM2.361,36.179 C2.801,34.982 4.541,32.616 7.114,30.517 C7.276,30.386 7.674,30.014 8.039,29.669 C5.348,33.942 3.546,35.645 2.361,36.179 ZM17.600,1.237 C18.375,1.237 18.816,3.182 18.853,5.005 C18.889,6.829 18.461,8.108 17.930,9.055 C17.490,7.653 17.277,5.444 17.277,3.999 C17.277,3.999 17.245,1.237 17.600,1.237 ZM13.055,26.138 C13.594,25.175 14.156,24.161 14.730,23.085 C16.129,20.450 17.012,18.389 17.671,16.695 C18.979,19.066 20.609,21.081 22.525,22.696 C22.764,22.897 23.017,23.100 23.283,23.302 C19.387,24.069 16.019,25.003 13.055,26.138 ZM37.620,25.919 C37.383,26.067 36.703,26.152 36.266,26.152 C34.855,26.152 33.108,25.510 30.661,24.465 C31.601,24.396 32.464,24.360 33.237,24.360 C34.652,24.360 35.072,24.354 36.456,24.706 C37.840,25.057 37.857,25.771 37.620,25.919 Z" class="cls-1"/>
</svg>
