<svg xmlns="http://www.w3.org/2000/svg" width="17" height="15" viewBox="0 0 17 15"><path fill="#fff" d="M4.94 8.7c.48 0 .94-.03 1.38-.09V3.86c-.44-.06-.9-.1-1.38-.1C2.2 3.77 0 4.77 0 6v.48C0 7.7 2.21 8.7 4.94 8.7zm0 2.48c.48 0 .94-.03 1.38-.08V9.7c-.44.06-.9.09-1.38.09C2.56 9.79.57 9.03.1 8.02c-.06.15-.1.3-.1.46v.48c0 1.23 2.21 2.22 4.94 2.22zm1.38 1c-.44.06-.9.1-1.38.1-2.38 0-4.37-.77-4.84-1.78-.06.15-.1.3-.1.46v.48c0 1.23 2.21 2.23 4.94 2.23.55 0 1.07-.04 1.56-.12-.12-.24-.18-.5-.18-.78zM12.06 0C9.33 0 7.12 1 7.12 2.22v.49c0 1.22 2.21 2.22 4.94 2.22 2.73 0 4.94-1 4.94-2.22v-.49C17 1 14.79 0 12.06 0zm0 6.02c-2.38 0-4.37-.76-4.84-1.77-.06.15-.1.3-.1.46v.48c0 1.23 2.21 2.22 4.94 2.22 2.73 0 4.94-1 4.94-2.22v-.48c0-.16-.04-.31-.1-.46-.47 1.01-2.46 1.77-4.84 1.77zm0 2.48c-2.38 0-4.37-.75-4.84-1.76-.06.14-.1.3-.1.45v.48c0 1.23 2.21 2.23 4.94 2.23 2.73 0 4.94-1 4.94-2.23V7.2c0-.16-.04-.3-.1-.45-.47 1-2.46 1.76-4.84 1.76zm0 2.62c-2.38 0-4.37-.76-4.84-1.77-.06.15-.1.3-.1.46v.48c0 1.23 2.21 2.23 4.94 2.23 2.73 0 4.94-1 4.94-2.23v-.48c0-.16-.04-.3-.1-.46-.47 1.01-2.46 1.77-4.84 1.77zm0 2.49c-2.38 0-4.37-.76-4.84-1.77-.06.14-.1.3-.1.45v.48C7.12 14 9.33 15 12.06 15 14.8 15 17 14 17 12.77v-.48c0-.15-.04-.3-.1-.45-.47 1-2.46 1.77-4.84 1.77z"/></svg>