<svg xmlns="http://www.w3.org/2000/svg" width="61" height="61" viewBox="0 0 61 61"><path fill="#fff" d="M55.03 12.65h-2.37a7.69 7.69 0 0 0-3.65-10.97 7.9 7.9 0 0 0-8.5 1.35l-5 4.47a5.98 5.98 0 0 0-10.02.01l-5.01-4.48a7.9 7.9 0 0 0-8.5-1.35 7.69 7.69 0 0 0-3.66 10.97H5.97A5.93 5.93 0 0 0 0 18.53v7.84c0 1.09.89 1.96 1.99 1.96h1.99v26.79A5.93 5.93 0 0 0 9.95 61h41.1c3.3 0 5.97-2.64 5.97-5.88V28.33h2c1.09 0 1.98-.87 1.98-1.96v-7.84a5.93 5.93 0 0 0-5.97-5.88zM9.95 57.08c-1.1 0-2-.88-2-1.96V28.33h16.58v28.75zm14.58-32.67H3.98v-5.88c0-1.08.9-1.96 1.99-1.96h18.56zM11.26 8.79c0-1.57.87-2.89 2.33-3.52a3.87 3.87 0 0 1 4.22.66l7.52 6.72H15.18a3.9 3.9 0 0 1-3.92-3.86zm19.24-.06c.94 0 1.73.65 1.93 1.51l-1.94 1.73-1.93-1.72c.2-.87 1-1.52 1.94-1.52zm1.99 48.35H28.5V28.33h3.98zm0-32.67H28.5v-7.84h3.98zm10.7-18.48a3.87 3.87 0 0 1 4.2-.66 3.75 3.75 0 0 1 2.34 3.52 3.9 3.9 0 0 1-3.92 3.86H35.66zm9.85 49.19c0 1.08-.89 1.96-1.99 1.96H36.47V28.33h16.57zm3.98-30.71H36.47v-7.84h18.56c1.1 0 2 .88 2 1.96z"/></svg>