<svg xmlns="http://www.w3.org/2000/svg" width="20" height="18" viewBox="0 0 20 18"><path fill="#38515e" d="M5.81 4.9a6.19 6.19 0 0 1 7.48-.86l-1.71 1.67c-.65.75.08 1.19.44 1.18h5.95c.22 0 .41-.18.41-.4V.7C18.4.2 17.81-.32 17.2.26l-1.71 1.65a9.29 9.29 0 0 0-11.84.89A8.79 8.79 0 0 0 1 9.5h3.05a5.85 5.85 0 0 1 1.76-4.6zm10.14 3.6zm-1.76 4.6a6.19 6.19 0 0 1-7.48.86l1.71-1.67c.64-.75-.08-1.19-.44-1.18h-4.7-1.25a.41.41 0 0 0-.41.4v5.78c-.03.52.57 1.04 1.18.45l1.71-1.64a9.28 9.28 0 0 0 11.84-.9A8.79 8.79 0 0 0 19 8.5h-3.05a5.85 5.85 0 0 1-1.76 4.6z"/></svg>