<svg xmlns="http://www.w3.org/2000/svg" width="19" height="19" viewBox="0 0 19 19"><path fill="#fff" d="M17.95 9c-.03-.25-.32-.44-.58-.44a2 2 0 0 1-1.86-1.24A2 2 0 0 1 16 5.1a.5.5 0 0 0 .05-.68 8.91 8.91 0 0 0-1.42-1.44.5.5 0 0 0-.69.05c-.53.6-1.5.82-2.24.5a2 2 0 0 1-1.22-1.94.5.5 0 0 0-.44-.53 9.02 9.02 0 0 0-2.02 0 .5.5 0 0 0-.45.5A2 2 0 0 1 6.35 3.5c-.74.3-1.7.08-2.23-.5a.5.5 0 0 0-.68-.06c-.54.42-1.03.9-1.46 1.44a.5.5 0 0 0 .06.68 2 2 0 0 1 .5 2.24A2.08 2.08 0 0 1 .58 8.51a.49.49 0 0 0-.52.44 9.04 9.04 0 0 0 0 2.05c.03.25.33.44.59.44.78-.02 1.53.47 1.85 1.24A2 2 0 0 1 2 14.9a.5.5 0 0 0-.06.68 9 9 0 0 0 1.43 1.44c.2.17.5.14.68-.05.54-.6 1.5-.82 2.25-.5A2 2 0 0 1 7.5 18.4a.5.5 0 0 0 .45.53 8.98 8.98 0 0 0 2.02 0 .5.5 0 0 0 .45-.51 2 2 0 0 1 1.23-1.92c.74-.3 1.7-.08 2.23.5.18.2.47.22.68.06.54-.42 1.03-.9 1.45-1.43a.5.5 0 0 0-.05-.69 2 2 0 0 1 1.34-3.46h.1a.5.5 0 0 0 .54-.44c.07-.68.08-1.37 0-2.05zm-8.93 4.02a3 3 0 1 1 0-6.01 3 3 0 0 1 0 6.01z"/></svg>