<svg xmlns="http://www.w3.org/2000/svg" width="15" height="15" viewBox="0 0 15 15"><path fill="#1eaf26" d="M13.91 7.34l-2.63 2.63a3.71 3.71 0 0 1-5.81-.75L6.69 8c.05-.06.13-.1.2-.13.08.29.23.56.45.79.73.72 1.9.72 2.63 0l2.63-2.63A1.86 1.86 0 0 0 9.97 3.4l-.94.94a4.65 4.65 0 0 0-2.37-.26l2-2a3.72 3.72 0 0 1 5.25 5.26zm-6.95 4.32l-.93.94A1.86 1.86 0 0 1 3.4 9.97l2.63-2.63a1.86 1.86 0 0 1 3.09.79c.06-.04.13-.07.2-.13l1.21-1.22a3.72 3.72 0 0 0-5.82-.75L2.1 8.66a3.72 3.72 0 0 0 5.25 5.25l2-1.99c-.8.12-1.62.04-2.38-.26z"/></svg>