<svg xmlns="http://www.w3.org/2000/svg" width="20" height="15" viewBox="0 0 20 15"><path fill="#1eaf26" d="M14.12 8.9a4.85 4.85 0 0 0 .79-3.77l-3.12 5.6a4.95 4.95 0 0 0 2.33-1.83zm.46-7.72l.01-.1c0-.12-.06-.22-.18-.3l-.22-.13-.35-.2-.37-.21a4.63 4.63 0 0 0-.55-.24c-.13 0-.23.06-.31.18l-.6 1.08A10.6 10.6 0 0 0 4.46 2.6 13.11 13.11 0 0 0 .22 6.73c-.15.23-.22.49-.22.77s.07.54.22.77A13.4 13.4 0 0 0 2.55 11c.9.8 1.88 1.45 2.94 1.93-.33.56-.49.89-.49.98 0 .13.06.23.18.3.91.53 1.4.79 1.49.79.14 0 .24-.06.32-.18l.54-1c.79-1.4 1.97-3.5 3.53-6.32l3.52-6.32zm-8.39 10.5A11 11 0 0 1 1.43 7.5a10.98 10.98 0 0 1 4.25-3.94 4.91 4.91 0 0 0-.13 4.78c.36.71.87 1.3 1.51 1.77zm4.19-8.09c-.1.1-.23.16-.38.16-.64 0-1.19.23-1.64.68-.45.45-.68 1-.68 1.64a.5.5 0 0 1-.16.38c-.1.1-.23.16-.38.16a.53.53 0 0 1-.53-.54c0-.93.33-1.73 1-2.4.66-.66 1.46-1 2.39-1 .15 0 .27.06.38.16.1.1.16.24.16.38 0 .15-.06.28-.16.38zm9.4 3.14a13.46 13.46 0 0 0-3.65-3.76l-.71 1.25c1.25.85 2.3 1.95 3.15 3.28-.9 1.4-2.02 2.54-3.36 3.43a9.31 9.31 0 0 1-4.38 1.53L10 13.93c1.65 0 3.21-.35 4.68-1.06 1.47-.7 2.76-1.7 3.88-2.98.52-.6.93-1.14 1.22-1.62.15-.25.22-.5.22-.77 0-.26-.07-.52-.22-.77z"/></svg>