<svg xmlns="http://www.w3.org/2000/svg" width="21" height="21" viewBox="0 0 21 21"><path fill="#76878f" d="M20.16 6.41A10.29 10.29 0 0 0 14.57.84a10.32 10.32 0 0 0-8.16 0A10.32 10.32 0 0 0 .83 6.4C.27 7.71 0 9.06 0 10.49c0 1.42.27 2.8.83 4.09 1.1 2.59 3 4.47 5.58 5.58a10.2 10.2 0 0 0 8.16 0c2.6-1.1 4.48-3 5.6-5.58a10.29 10.29 0 0 0 0-8.17zm-1.67 8.72A9.23 9.23 0 1 1 2.52 5.87a9.23 9.23 0 0 1 15.97 9.26zm-7.34-4.73V4.45a.66.66 0 0 0-.67-.65.65.65 0 0 0-.63.65v6.04l.02.09a.6.6 0 0 0 .18.52l3.43 3.43c.23.23.65.23.88 0a.62.62 0 0 0 0-.9z"/></svg>