<svg xmlns="http://www.w3.org/2000/svg" width="14" height="15" viewBox="0 0 14 15"><path fill="#38515e" d="M.35 12.61H2.8v2.05c0 .1.03.18.1.24.06.07.15.1.25.1h1.83c.1 0 .17-.03.24-.1.07-.06.1-.14.1-.24V12.6h5.53c.1 0 .19-.03.25-.1.07-.06.1-.14.1-.24v-1.36a.33.33 0 0 0-.35-.34H5.33V9.3h3.72a5 5 0 0 0 3.57-1.3A4.4 4.4 0 0 0 14 4.66a4.4 4.4 0 0 0-1.38-3.36A5 5 0 0 0 9.05 0h-5.9c-.1 0-.19.03-.25.1a.33.33 0 0 0-.1.24v6.7H.35c-.1 0-.19.04-.25.1a.33.33 0 0 0-.1.24v1.59a.33.33 0 0 0 .35.34H2.8v1.26H.35c-.1 0-.19.03-.25.1a.33.33 0 0 0-.1.24v1.36c0 .1.03.18.1.25.06.06.15.1.25.1zM5.33 2.27h3.5c.77 0 1.4.22 1.87.66.47.44.7 1.02.7 1.72 0 .72-.23 1.3-.7 1.73-.48.44-1.1.66-1.87.66h-3.5z"/></svg>