<svg xmlns="http://www.w3.org/2000/svg" width="8" height="7" viewBox="0 0 8 7"><path fill="#4cb059" d="M2.66 3.5L.11.88a.39.39 0 0 1 0-.54L.33.11A.39.39 0 0 1 .6 0c.09 0 .19.04.26.11l3.03 3.12a.39.39 0 0 1 0 .54L.86 6.89A.36.36 0 0 1 .6 7c-.1 0-.2-.04-.27-.11l-.22-.23a.4.4 0 0 1 0-.54z"/><path fill="#4cb059" d="M6.66 3.5L4.11.88a.39.39 0 0 1 0-.54l.22-.23A.38.38 0 0 1 4.59 0c.1 0 .2.04.27.11l3.03 3.12a.39.39 0 0 1 0 .54L4.86 6.89A.36.36 0 0 1 4.6 7c-.1 0-.2-.04-.27-.11l-.22-.23a.4.4 0 0 1 0-.54z"/></svg>