<svg xmlns="http://www.w3.org/2000/svg" width="18" height="19" viewBox="0 0 18 19"><path fill="#425568" d="M17.6 9.15c.36-.36.48-.89.33-1.38a1.3 1.3 0 0 0-1.04-.91l-4.36-.66a.6.6 0 0 1-.43-.33l-1.94-4.12A1.29 1.29 0 0 0 9 1c-.49 0-.94.29-1.16.75L5.9 5.87a.6.6 0 0 1-.43.33l-4.36.66a1.3 1.3 0 0 0-1.04.91c-.15.5-.03 1.02.33 1.38l3.15 3.21c.13.14.19.34.16.53l-.74 4.53c-.07.4.03.78.28 1.09.38.48 1.05.62 1.59.33l3.89-2.14a.56.56 0 0 1 .53 0l3.9 2.14a1.28 1.28 0 0 0 1.59-.33c.25-.3.35-.7.28-1.1l-.74-4.52a.63.63 0 0 1 .16-.53z"/></svg>