<svg xmlns="http://www.w3.org/2000/svg" width="25" height="23" viewBox="0 0 25 23"><path fill="#fff" d="M24.02 5.18a3.26 3.26 0 0 0-2.35-.95h-2.92l-.66-1.72a2.37 2.37 0 0 0-.9-1.06c-.45-.3-.9-.45-1.36-.45H9.17c-.46 0-.91.15-1.35.45-.44.3-.74.65-.9 1.06l-.67 1.72H3.33c-.92 0-1.7.32-2.35.95C.33 5.8 0 6.57 0 7.46v11.31c0 .9.33 1.65.98 2.28.65.63 1.43.95 2.35.95h18.34c.92 0 1.7-.32 2.35-.95.65-.63.98-1.39.98-2.28V7.47c0-.9-.33-1.66-.98-2.3zm-7.4 11.93a5.7 5.7 0 0 1-4.12 1.66 5.7 5.7 0 0 1-4.12-1.66 5.36 5.36 0 0 1-1.71-4c0-1.55.57-2.88 1.7-3.99a5.71 5.71 0 0 1 4.13-1.66c1.6 0 2.98.56 4.12 1.66a5.37 5.37 0 0 1 1.71 4c0 1.55-.57 2.88-1.7 3.99zM12.5 9.48c-1.03 0-1.92.36-2.65 1.07a3.45 3.45 0 0 0-1.1 2.57c0 1 .37 1.85 1.1 2.56a3.67 3.67 0 0 0 2.65 1.07c1.03 0 1.92-.35 2.65-1.07a3.45 3.45 0 0 0 1.1-2.56c0-1-.37-1.86-1.1-2.57a3.67 3.67 0 0 0-2.65-1.07z"/></svg>