<?xml version="1.0" encoding="iso-8859-1"?>
<!-- Generator: Adobe Illustrator 16.0.0, SVG Export Plug-In . SVG Version: 6.00 Build 0)  -->
<!DOCTYPE svg PUBLIC "-//W3C//DTD SVG 1.1//EN" "http://www.w3.org/Graphics/SVG/1.1/DTD/svg11.dtd">
<svg version="1.1" id="Capa_1" xmlns="http://www.w3.org/2000/svg" xmlns:xlink="http://www.w3.org/1999/xlink" x="0px" y="0px"
	 width="147.51px" height="147.51px" viewBox="0 0 147.51 147.51" style="enable-background:new 0 0 147.51 147.51;"
	 xml:space="preserve">
<g>
	<path d="M147.51,17.705c0-6.771-5.511-12.276-12.281-12.276c-6.771,0-12.276,5.505-12.276,12.276c0,4.43,2.375,8.281,5.895,10.446
		l-23.479,23.358L81.242,27.371c2.886-2.244,4.785-5.724,4.785-9.667c0-6.771-5.504-12.276-12.275-12.276
		c-6.771,0-12.279,5.505-12.279,12.276c0,3.943,1.897,7.411,4.79,9.667L42.101,51.533L18.271,27.77
		c3.736-2.113,6.284-6.068,6.284-10.65c0-6.771-5.504-12.276-12.276-12.276C5.508,4.844,0,10.349,0,17.12
		c0,4.771,2.75,8.854,6.723,10.887v91.326c0,2.581,2.095,4.676,4.676,4.676h31.521c0.274,0.049,0.554,0.086,0.828,0.086
		s0.554-0.037,0.828-0.086h91.536c2.582,0,4.676-2.095,4.676-4.676V28.592C144.764,26.567,147.51,22.457,147.51,17.705z
		 M135.229,14.782c1.625,0,2.929,1.309,2.929,2.923c0,1.617-1.304,2.932-2.929,2.932c-1.607,0-2.923-1.315-2.923-2.932
		C132.306,16.091,133.633,14.782,135.229,14.782z M131.435,38.782v38.779l-19.437-19.438L131.435,38.782z M97.408,72.62l7.959-7.925
		l26.067,26.068v15.88L97.408,72.62z M73.758,14.782c1.614,0,2.93,1.309,2.93,2.923c0,1.617-1.315,2.932-2.93,2.932
		c-1.613,0-2.926-1.315-2.926-2.932C70.832,16.091,72.15,14.782,73.758,14.782z M73.758,33.095L98.754,58.1l-7.952,7.916
		L77.064,52.282c-1.747-1.753-4.853-1.753-6.609,0L56.672,66.067l-7.943-7.925L73.758,33.095z M84.171,72.595L73.703,83.017
		l-10.4-10.363l10.455-10.464L84.171,72.595z M16.082,90.774l26.031-26.028l7.946,7.925l-33.978,33.984V90.774z M16.082,77.536
		v-38.76L35.491,58.13L16.082,77.536z M12.291,14.197c1.614,0,2.923,1.309,2.923,2.923c0,1.613-1.309,2.923-2.923,2.923
		c-1.617,0-2.926-1.31-2.926-2.923C9.365,15.506,10.668,14.197,12.291,14.197z M41.903,114.668H21.294l35.399-35.402l10.382,10.352
		L41.903,114.668z M55.165,114.668l18.538-18.45l18.493,18.45H55.165z M80.328,89.63l10.461-10.412l35.451,35.463h-20.807
		L80.328,89.63z M140.787,137.989c0,2.582-2.094,4.677-4.676,4.677H11.405c-2.582,0-4.677-2.095-4.677-4.677
		c0-2.569,2.095-4.676,4.677-4.676h124.706C138.693,133.313,140.787,135.42,140.787,137.989z"/>
</g>
<g>
</g>
<g>
</g>
<g>
</g>
<g>
</g>
<g>
</g>
<g>
</g>
<g>
</g>
<g>
</g>
<g>
</g>
<g>
</g>
<g>
</g>
<g>
</g>
<g>
</g>
<g>
</g>
<g>
</g>
</svg>
